%TF.GenerationSoftware,KiCad,Pcbnew,10.0.4*%
%TF.CreationDate,2026-07-24T02:31:07+01:00*%
%TF.ProjectId,keeb,6b656562-2e6b-4696-9361-645f70636258,rev?*%
%TF.SameCoordinates,Original*%
%TF.FileFunction,Legend,Top*%
%TF.FilePolarity,Positive*%
%FSLAX46Y46*%
G04 Gerber Fmt 4.6, Leading zero omitted, Abs format (unit mm)*
G04 Created by KiCad (PCBNEW 10.0.4) date 2026-07-24 02:31:07*
%MOMM*%
%LPD*%
G01*
G04 APERTURE LIST*
%ADD10C,0.150000*%
%ADD11C,0.120000*%
G04 APERTURE END LIST*
D10*
X487316660Y-74924104D02*
X487792850Y-74924104D01*
X487221422Y-75209819D02*
X487554755Y-74209819D01*
X487554755Y-74209819D02*
X487888088Y-75209819D01*
X488745231Y-75209819D02*
X488173803Y-75209819D01*
X488459517Y-75209819D02*
X488459517Y-74209819D01*
X488459517Y-74209819D02*
X488364279Y-74352676D01*
X488364279Y-74352676D02*
X488269041Y-74447914D01*
X488269041Y-74447914D02*
X488173803Y-74495533D01*
X472068095Y-144924819D02*
X472068095Y-145734342D01*
X472068095Y-145734342D02*
X472115714Y-145829580D01*
X472115714Y-145829580D02*
X472163333Y-145877200D01*
X472163333Y-145877200D02*
X472258571Y-145924819D01*
X472258571Y-145924819D02*
X472449047Y-145924819D01*
X472449047Y-145924819D02*
X472544285Y-145877200D01*
X472544285Y-145877200D02*
X472591904Y-145829580D01*
X472591904Y-145829580D02*
X472639523Y-145734342D01*
X472639523Y-145734342D02*
X472639523Y-144924819D01*
X473068095Y-145020057D02*
X473115714Y-144972438D01*
X473115714Y-144972438D02*
X473210952Y-144924819D01*
X473210952Y-144924819D02*
X473449047Y-144924819D01*
X473449047Y-144924819D02*
X473544285Y-144972438D01*
X473544285Y-144972438D02*
X473591904Y-145020057D01*
X473591904Y-145020057D02*
X473639523Y-145115295D01*
X473639523Y-145115295D02*
X473639523Y-145210533D01*
X473639523Y-145210533D02*
X473591904Y-145353390D01*
X473591904Y-145353390D02*
X473020476Y-145924819D01*
X473020476Y-145924819D02*
X473639523Y-145924819D01*
X382229819Y-38671904D02*
X383039342Y-38671904D01*
X383039342Y-38671904D02*
X383134580Y-38624285D01*
X383134580Y-38624285D02*
X383182200Y-38576666D01*
X383182200Y-38576666D02*
X383229819Y-38481428D01*
X383229819Y-38481428D02*
X383229819Y-38290952D01*
X383229819Y-38290952D02*
X383182200Y-38195714D01*
X383182200Y-38195714D02*
X383134580Y-38148095D01*
X383134580Y-38148095D02*
X383039342Y-38100476D01*
X383039342Y-38100476D02*
X382229819Y-38100476D01*
X383229819Y-37100476D02*
X383229819Y-37671904D01*
X383229819Y-37386190D02*
X382229819Y-37386190D01*
X382229819Y-37386190D02*
X382372676Y-37481428D01*
X382372676Y-37481428D02*
X382467914Y-37576666D01*
X382467914Y-37576666D02*
X382515533Y-37671904D01*
X466343333Y-100494819D02*
X466010000Y-100018628D01*
X465771905Y-100494819D02*
X465771905Y-99494819D01*
X465771905Y-99494819D02*
X466152857Y-99494819D01*
X466152857Y-99494819D02*
X466248095Y-99542438D01*
X466248095Y-99542438D02*
X466295714Y-99590057D01*
X466295714Y-99590057D02*
X466343333Y-99685295D01*
X466343333Y-99685295D02*
X466343333Y-99828152D01*
X466343333Y-99828152D02*
X466295714Y-99923390D01*
X466295714Y-99923390D02*
X466248095Y-99971009D01*
X466248095Y-99971009D02*
X466152857Y-100018628D01*
X466152857Y-100018628D02*
X465771905Y-100018628D01*
X467295714Y-100494819D02*
X466724286Y-100494819D01*
X467010000Y-100494819D02*
X467010000Y-99494819D01*
X467010000Y-99494819D02*
X466914762Y-99637676D01*
X466914762Y-99637676D02*
X466819524Y-99732914D01*
X466819524Y-99732914D02*
X466724286Y-99780533D01*
X478833333Y-100494819D02*
X478500000Y-100018628D01*
X478261905Y-100494819D02*
X478261905Y-99494819D01*
X478261905Y-99494819D02*
X478642857Y-99494819D01*
X478642857Y-99494819D02*
X478738095Y-99542438D01*
X478738095Y-99542438D02*
X478785714Y-99590057D01*
X478785714Y-99590057D02*
X478833333Y-99685295D01*
X478833333Y-99685295D02*
X478833333Y-99828152D01*
X478833333Y-99828152D02*
X478785714Y-99923390D01*
X478785714Y-99923390D02*
X478738095Y-99971009D01*
X478738095Y-99971009D02*
X478642857Y-100018628D01*
X478642857Y-100018628D02*
X478261905Y-100018628D01*
X479214286Y-99590057D02*
X479261905Y-99542438D01*
X479261905Y-99542438D02*
X479357143Y-99494819D01*
X479357143Y-99494819D02*
X479595238Y-99494819D01*
X479595238Y-99494819D02*
X479690476Y-99542438D01*
X479690476Y-99542438D02*
X479738095Y-99590057D01*
X479738095Y-99590057D02*
X479785714Y-99685295D01*
X479785714Y-99685295D02*
X479785714Y-99780533D01*
X479785714Y-99780533D02*
X479738095Y-99923390D01*
X479738095Y-99923390D02*
X479166667Y-100494819D01*
X479166667Y-100494819D02*
X479785714Y-100494819D01*
X440724999Y-31354819D02*
X440391666Y-30878628D01*
X440153571Y-31354819D02*
X440153571Y-30354819D01*
X440153571Y-30354819D02*
X440534523Y-30354819D01*
X440534523Y-30354819D02*
X440629761Y-30402438D01*
X440629761Y-30402438D02*
X440677380Y-30450057D01*
X440677380Y-30450057D02*
X440724999Y-30545295D01*
X440724999Y-30545295D02*
X440724999Y-30688152D01*
X440724999Y-30688152D02*
X440677380Y-30783390D01*
X440677380Y-30783390D02*
X440629761Y-30831009D01*
X440629761Y-30831009D02*
X440534523Y-30878628D01*
X440534523Y-30878628D02*
X440153571Y-30878628D01*
X441344047Y-30354819D02*
X441534523Y-30354819D01*
X441534523Y-30354819D02*
X441629761Y-30402438D01*
X441629761Y-30402438D02*
X441724999Y-30497676D01*
X441724999Y-30497676D02*
X441772618Y-30688152D01*
X441772618Y-30688152D02*
X441772618Y-31021485D01*
X441772618Y-31021485D02*
X441724999Y-31211961D01*
X441724999Y-31211961D02*
X441629761Y-31307200D01*
X441629761Y-31307200D02*
X441534523Y-31354819D01*
X441534523Y-31354819D02*
X441344047Y-31354819D01*
X441344047Y-31354819D02*
X441248809Y-31307200D01*
X441248809Y-31307200D02*
X441153571Y-31211961D01*
X441153571Y-31211961D02*
X441105952Y-31021485D01*
X441105952Y-31021485D02*
X441105952Y-30688152D01*
X441105952Y-30688152D02*
X441153571Y-30497676D01*
X441153571Y-30497676D02*
X441248809Y-30402438D01*
X441248809Y-30402438D02*
X441344047Y-30354819D01*
X442058333Y-30354819D02*
X442629761Y-30354819D01*
X442344047Y-31354819D02*
X442344047Y-30354819D01*
X442725000Y-31450057D02*
X443486904Y-31450057D01*
X443677381Y-31307200D02*
X443820238Y-31354819D01*
X443820238Y-31354819D02*
X444058333Y-31354819D01*
X444058333Y-31354819D02*
X444153571Y-31307200D01*
X444153571Y-31307200D02*
X444201190Y-31259580D01*
X444201190Y-31259580D02*
X444248809Y-31164342D01*
X444248809Y-31164342D02*
X444248809Y-31069104D01*
X444248809Y-31069104D02*
X444201190Y-30973866D01*
X444201190Y-30973866D02*
X444153571Y-30926247D01*
X444153571Y-30926247D02*
X444058333Y-30878628D01*
X444058333Y-30878628D02*
X443867857Y-30831009D01*
X443867857Y-30831009D02*
X443772619Y-30783390D01*
X443772619Y-30783390D02*
X443725000Y-30735771D01*
X443725000Y-30735771D02*
X443677381Y-30640533D01*
X443677381Y-30640533D02*
X443677381Y-30545295D01*
X443677381Y-30545295D02*
X443725000Y-30450057D01*
X443725000Y-30450057D02*
X443772619Y-30402438D01*
X443772619Y-30402438D02*
X443867857Y-30354819D01*
X443867857Y-30354819D02*
X444105952Y-30354819D01*
X444105952Y-30354819D02*
X444248809Y-30402438D01*
X444582143Y-30354819D02*
X444820238Y-31354819D01*
X444820238Y-31354819D02*
X445010714Y-30640533D01*
X445010714Y-30640533D02*
X445201190Y-31354819D01*
X445201190Y-31354819D02*
X445439286Y-30354819D01*
X446344047Y-31354819D02*
X445772619Y-31354819D01*
X446058333Y-31354819D02*
X446058333Y-30354819D01*
X446058333Y-30354819D02*
X445963095Y-30497676D01*
X445963095Y-30497676D02*
X445867857Y-30592914D01*
X445867857Y-30592914D02*
X445772619Y-30640533D01*
%TO.C,A1*%
D11*
X464350000Y-26660000D02*
X464350000Y-25060000D01*
X464670000Y-24990000D02*
X464670000Y-74990000D01*
X465010000Y-24443000D02*
X465010000Y-75537000D01*
X465280000Y-24380000D02*
X467770000Y-24380000D01*
X465280000Y-75600000D02*
X469117939Y-75600000D01*
X467770000Y-24380000D02*
X467770000Y-25293520D01*
X467770000Y-24380000D02*
X469117940Y-24380000D01*
X467770000Y-27686480D02*
X467770000Y-72293520D01*
X467770000Y-74686480D02*
X467770000Y-75600000D01*
X470042061Y-24380000D02*
X471045000Y-24380000D01*
X471045000Y-24380000D02*
X479515000Y-24380000D01*
X471170000Y-23080000D02*
X471170000Y-23900000D01*
X471170000Y-23080000D02*
X479390000Y-23080000D01*
X471170000Y-23900000D02*
X471380000Y-23900000D01*
X471380000Y-23900000D02*
X471380000Y-25296000D01*
X471380000Y-27684000D02*
X471380000Y-28900000D01*
X471680000Y-75600000D02*
X470042061Y-75600000D01*
X478880000Y-75600000D02*
X471680000Y-75600000D01*
X479180000Y-23900000D02*
X479180000Y-25296000D01*
X479180000Y-27684000D02*
X479180000Y-28900000D01*
X479180000Y-28900000D02*
X471380000Y-28900000D01*
X479390000Y-23080000D02*
X479390000Y-23900000D01*
X479390000Y-23900000D02*
X479180000Y-23900000D01*
X479515000Y-24380000D02*
X480517939Y-24380000D01*
X480517939Y-75600000D02*
X478880000Y-75600000D01*
X481442061Y-24380000D02*
X482790000Y-24380000D01*
X481442061Y-75600000D02*
X485280000Y-75600000D01*
X482790000Y-24380000D02*
X482790000Y-25293520D01*
X482790000Y-27686480D02*
X482790000Y-72293520D01*
X482790000Y-74686480D02*
X482790000Y-75600000D01*
X485280000Y-24380000D02*
X482790000Y-24380000D01*
X485550000Y-75537000D02*
X485550000Y-24443000D01*
X485890000Y-24990000D02*
X485890000Y-74990000D01*
X464670000Y-24990000D02*
G75*
G02*
X465280000Y-24380000I610000J0D01*
G01*
X465280000Y-75600000D02*
G75*
G02*
X464670000Y-74990000I-99J609901D01*
G01*
X485280000Y-24380000D02*
G75*
G02*
X485890000Y-24990000I0J-610000D01*
G01*
X485890000Y-74990000D02*
G75*
G02*
X485280000Y-75600000I-610000J0D01*
G01*
%TO.C,U2*%
X475480000Y-144470000D02*
X475480000Y-108790000D01*
X475480000Y-108790000D02*
X470180000Y-108790000D01*
X473830000Y-144470000D02*
X475480000Y-144470000D01*
X470180000Y-144470000D02*
X471830000Y-144470000D01*
X470180000Y-108790000D02*
X470180000Y-144470000D01*
X471830000Y-144470000D02*
G75*
G02*
X473830000Y-144470000I1000000J0D01*
G01*
%TO.C,U1*%
X385275000Y-43290000D02*
X386655000Y-43290000D01*
X386655000Y-41910000D02*
X386655000Y-43290000D01*
X383775000Y-32100000D02*
X421775000Y-32100000D01*
X421775000Y-44100000D01*
X383775000Y-44100000D01*
X383775000Y-32100000D01*
%TO.C,R1*%
X469780000Y-103780000D02*
X469780000Y-103450000D01*
X469780000Y-101040000D02*
X469780000Y-101370000D01*
X463240000Y-103780000D02*
X469780000Y-103780000D01*
X463240000Y-103450000D02*
X463240000Y-103780000D01*
X463240000Y-101370000D02*
X463240000Y-101040000D01*
X463240000Y-101040000D02*
X469780000Y-101040000D01*
%TO.C,R2*%
X482270000Y-103780000D02*
X482270000Y-103450000D01*
X482270000Y-101040000D02*
X482270000Y-101370000D01*
X475730000Y-103780000D02*
X482270000Y-103780000D01*
X475730000Y-103450000D02*
X475730000Y-103780000D01*
X475730000Y-101370000D02*
X475730000Y-101040000D01*
X475730000Y-101040000D02*
X482270000Y-101040000D01*
%TO.C,ROT_SW1*%
X450925000Y-38100000D02*
G75*
G02*
X444925000Y-38100000I-3000000J0D01*
G01*
X444925000Y-38100000D02*
G75*
G02*
X450925000Y-38100000I3000000J0D01*
G01*
X454625000Y-44400000D02*
X449725000Y-44400000D01*
X454625000Y-41800000D02*
X454625000Y-44400000D01*
X454625000Y-36800000D02*
X454625000Y-39400000D01*
X454625000Y-31800000D02*
X454625000Y-34400000D01*
X449725000Y-31800000D02*
X454625000Y-31800000D01*
X447925000Y-37600000D02*
X447925000Y-38600000D01*
X447425000Y-38100000D02*
X448425000Y-38100000D01*
X446125000Y-44400000D02*
X441225000Y-44400000D01*
X446025000Y-31800000D02*
X441225000Y-31800000D01*
X441225000Y-44400000D02*
X441225000Y-41600000D01*
X441225000Y-31800000D02*
X441225000Y-34300000D01*
X440725000Y-34000000D02*
X440425000Y-34300000D01*
X440425000Y-34300000D02*
X440125000Y-34000000D01*
X440125000Y-34000000D02*
X440725000Y-34000000D01*
%TD*%
M02*
