%TF.GenerationSoftware,KiCad,Pcbnew,10.0.4*%
%TF.CreationDate,2026-07-24T02:34:10+01:00*%
%TF.ProjectId,keeb,6b656562-2e6b-4696-9361-645f70636258,rev?*%
%TF.SameCoordinates,Original*%
%TF.FileFunction,Soldermask,Top*%
%TF.FilePolarity,Negative*%
%FSLAX46Y46*%
G04 Gerber Fmt 4.6, Leading zero omitted, Abs format (unit mm)*
G04 Created by KiCad (PCBNEW 10.0.4) date 2026-07-24 02:34:10*
%MOMM*%
%LPD*%
G01*
G04 APERTURE LIST*
G04 Aperture macros list*
%AMRoundRect*
0 Rectangle with rounded corners*
0 $1 Rounding radius*
0 $2 $3 $4 $5 $6 $7 $8 $9 X,Y pos of 4 corners*
0 Add a 4 corners polygon primitive as box body*
4,1,4,$2,$3,$4,$5,$6,$7,$8,$9,$2,$3,0*
0 Add four circle primitives for the rounded corners*
1,1,$1+$1,$2,$3*
1,1,$1+$1,$4,$5*
1,1,$1+$1,$6,$7*
1,1,$1+$1,$8,$9*
0 Add four rect primitives between the rounded corners*
20,1,$1+$1,$2,$3,$4,$5,0*
20,1,$1+$1,$4,$5,$6,$7,0*
20,1,$1+$1,$6,$7,$8,$9,0*
20,1,$1+$1,$8,$9,$2,$3,0*%
%AMFreePoly0*
4,1,37,0.603843,0.796157,0.639018,0.796157,0.711114,0.766294,0.766294,0.711114,0.796157,0.639018,0.796157,0.603843,0.800000,0.600000,0.800000,-0.600000,0.796157,-0.603843,0.796157,-0.639018,0.766294,-0.711114,0.711114,-0.766294,0.639018,-0.796157,0.603843,-0.796157,0.600000,-0.800000,0.000000,-0.800000,0.000000,-0.796148,-0.078414,-0.796148,-0.232228,-0.765552,-0.377117,-0.705537,
-0.507515,-0.618408,-0.618408,-0.507515,-0.705537,-0.377117,-0.765552,-0.232228,-0.796148,-0.078414,-0.796148,0.078414,-0.765552,0.232228,-0.705537,0.377117,-0.618408,0.507515,-0.507515,0.618408,-0.377117,0.705537,-0.232228,0.765552,-0.078414,0.796148,0.000000,0.796148,0.000000,0.800000,0.600000,0.800000,0.603843,0.796157,0.603843,0.796157,$1*%
%AMFreePoly1*
4,1,37,0.000000,0.796148,0.078414,0.796148,0.232228,0.765552,0.377117,0.705537,0.507515,0.618408,0.618408,0.507515,0.705537,0.377117,0.765552,0.232228,0.796148,0.078414,0.796148,-0.078414,0.765552,-0.232228,0.705537,-0.377117,0.618408,-0.507515,0.507515,-0.618408,0.377117,-0.705537,0.232228,-0.765552,0.078414,-0.796148,0.000000,-0.796148,0.000000,-0.800000,-0.600000,-0.800000,
-0.603843,-0.796157,-0.639018,-0.796157,-0.711114,-0.766294,-0.766294,-0.711114,-0.796157,-0.639018,-0.796157,-0.603843,-0.800000,-0.600000,-0.800000,0.600000,-0.796157,0.603843,-0.796157,0.639018,-0.766294,0.711114,-0.711114,0.766294,-0.639018,0.796157,-0.603843,0.796157,-0.600000,0.800000,0.000000,0.800000,0.000000,0.796148,0.000000,0.796148,$1*%
G04 Aperture macros list end*
%ADD10RoundRect,0.200000X-0.600000X-0.600000X0.600000X-0.600000X0.600000X0.600000X-0.600000X0.600000X0*%
%ADD11C,1.600000*%
%ADD12FreePoly0,0.000000*%
%ADD13FreePoly1,0.000000*%
%ADD14C,3.300000*%
%ADD15C,1.750000*%
%ADD16C,3.987800*%
%ADD17C,3.048000*%
%ADD18RoundRect,0.250000X0.550000X0.550000X-0.550000X0.550000X-0.550000X-0.550000X0.550000X-0.550000X0*%
%ADD19RoundRect,0.170000X0.680000X-0.680000X0.680000X0.680000X-0.680000X0.680000X-0.680000X-0.680000X0*%
%ADD20C,1.700000*%
%ADD21C,2.000000*%
%ADD22R,3.000000X2.500000*%
%ADD23R,2.000000X2.000000*%
G04 APERTURE END LIST*
D10*
%TO.C,A1*%
X466390000Y-25860000D03*
D11*
X466390000Y-28400000D03*
D12*
X466390000Y-30940000D03*
D11*
X466390000Y-33480000D03*
X466390000Y-36020000D03*
X466390000Y-38560000D03*
X466390000Y-41100000D03*
D12*
X466390000Y-43640000D03*
D11*
X466390000Y-46180000D03*
X466390000Y-48720000D03*
X466390000Y-51260000D03*
X466390000Y-53800000D03*
D12*
X466390000Y-56340000D03*
D11*
X466390000Y-58880000D03*
X466390000Y-61420000D03*
X466390000Y-63960000D03*
X466390000Y-66500000D03*
D12*
X466390000Y-69040000D03*
D11*
X466390000Y-71580000D03*
X466390000Y-74120000D03*
X484170000Y-74120000D03*
X484170000Y-71580000D03*
D13*
X484170000Y-69040000D03*
D11*
X484170000Y-66500000D03*
X484170000Y-63960000D03*
X484170000Y-61420000D03*
X484170000Y-58880000D03*
D13*
X484170000Y-56340000D03*
D11*
X484170000Y-53800000D03*
X484170000Y-51260000D03*
X484170000Y-48720000D03*
X484170000Y-46180000D03*
D13*
X484170000Y-43640000D03*
D11*
X484170000Y-41100000D03*
X484170000Y-38560000D03*
X484170000Y-36020000D03*
X484170000Y-33480000D03*
D13*
X484170000Y-30940000D03*
D11*
X484170000Y-28400000D03*
X484170000Y-25860000D03*
%TD*%
D14*
%TO.C,SW94*%
X66833750Y-137795000D03*
X60483750Y-140335000D03*
D15*
X59213750Y-142875000D03*
D16*
X64293750Y-142875000D03*
D15*
X69373750Y-142875000D03*
%TD*%
D14*
%TO.C,SW61*%
X93027500Y-99695000D03*
X86677500Y-102235000D03*
D15*
X85407500Y-104775000D03*
D16*
X90487500Y-104775000D03*
D15*
X95567500Y-104775000D03*
%TD*%
D16*
%TO.C,S4*%
X307181250Y-74930000D03*
D17*
X307181250Y-59690000D03*
D16*
X283368750Y-74930000D03*
D17*
X283368750Y-59690000D03*
%TD*%
D11*
%TO.C,R3*%
X39020000Y-49560000D03*
X46640000Y-49560000D03*
%TD*%
D18*
%TO.C,U2*%
X476640000Y-143140000D03*
D11*
X476640000Y-140600000D03*
X476640000Y-138060000D03*
X476640000Y-135520000D03*
X476640000Y-132980000D03*
X476640000Y-130440000D03*
X476640000Y-127900000D03*
X476640000Y-125360000D03*
X476640000Y-122820000D03*
X476640000Y-120280000D03*
X476640000Y-117740000D03*
X476640000Y-115200000D03*
X476640000Y-112660000D03*
X476640000Y-110120000D03*
X469020000Y-110120000D03*
X469020000Y-112660000D03*
X469020000Y-115200000D03*
X469020000Y-117740000D03*
X469020000Y-120280000D03*
X469020000Y-122820000D03*
X469020000Y-125360000D03*
X469020000Y-127900000D03*
X469020000Y-130440000D03*
X469020000Y-132980000D03*
X469020000Y-135520000D03*
X469020000Y-138060000D03*
X469020000Y-140600000D03*
X469020000Y-143140000D03*
%TD*%
D15*
%TO.C,SW105*%
X433705000Y-142875000D03*
D16*
X428625000Y-142875000D03*
D15*
X423545000Y-142875000D03*
D14*
X424815000Y-140335000D03*
X431165000Y-137795000D03*
%TD*%
D15*
%TO.C,SW104*%
X405130000Y-142875000D03*
D16*
X400050000Y-142875000D03*
D15*
X394970000Y-142875000D03*
D14*
X396240000Y-140335000D03*
X402590000Y-137795000D03*
%TD*%
D15*
%TO.C,SW103*%
X371792500Y-142875000D03*
D16*
X366712500Y-142875000D03*
D15*
X361632500Y-142875000D03*
D14*
X362902500Y-140335000D03*
X369252500Y-137795000D03*
%TD*%
D15*
%TO.C,SW102*%
X352742500Y-142875000D03*
D16*
X347662500Y-142875000D03*
D15*
X342582500Y-142875000D03*
D14*
X343852500Y-140335000D03*
X350202500Y-137795000D03*
%TD*%
D15*
%TO.C,SW101*%
X333692500Y-142875000D03*
D16*
X328612500Y-142875000D03*
D15*
X323532500Y-142875000D03*
D14*
X324802500Y-140335000D03*
X331152500Y-137795000D03*
%TD*%
D15*
%TO.C,SW100*%
X307498750Y-142875000D03*
D16*
X302418750Y-142875000D03*
D15*
X297338750Y-142875000D03*
D14*
X298608750Y-140335000D03*
X304958750Y-137795000D03*
%TD*%
D15*
%TO.C,SW99*%
X283686250Y-142875000D03*
D16*
X278606250Y-142875000D03*
D15*
X273526250Y-142875000D03*
D14*
X274796250Y-140335000D03*
X281146250Y-137795000D03*
%TD*%
D15*
%TO.C,SW98*%
X259873750Y-142875000D03*
D16*
X254793750Y-142875000D03*
D15*
X249713750Y-142875000D03*
D14*
X250983750Y-140335000D03*
X257333750Y-137795000D03*
%TD*%
D15*
%TO.C,SW97*%
X236061250Y-142875000D03*
D16*
X230981250Y-142875000D03*
D15*
X225901250Y-142875000D03*
D14*
X227171250Y-140335000D03*
X233521250Y-137795000D03*
%TD*%
%TO.C,SW96*%
X162083750Y-137795000D03*
X155733750Y-140335000D03*
D15*
X154463750Y-142875000D03*
D16*
X159543750Y-142875000D03*
D15*
X164623750Y-142875000D03*
%TD*%
%TO.C,SW95*%
X93186250Y-142875000D03*
D16*
X88106250Y-142875000D03*
D15*
X83026250Y-142875000D03*
D14*
X84296250Y-140335000D03*
X90646250Y-137795000D03*
%TD*%
D15*
%TO.C,SW93*%
X45561250Y-142875000D03*
D16*
X40481250Y-142875000D03*
D15*
X35401250Y-142875000D03*
D14*
X36671250Y-140335000D03*
X43021250Y-137795000D03*
%TD*%
D15*
%TO.C,SW92*%
X452755000Y-133350000D03*
D16*
X447675000Y-133350000D03*
D15*
X442595000Y-133350000D03*
D14*
X443865000Y-130810000D03*
X450215000Y-128270000D03*
%TD*%
D15*
%TO.C,SW91*%
X433705000Y-123825000D03*
D16*
X428625000Y-123825000D03*
D15*
X423545000Y-123825000D03*
D14*
X424815000Y-121285000D03*
X431165000Y-118745000D03*
%TD*%
D15*
%TO.C,SW90*%
X414655000Y-123825000D03*
D16*
X409575000Y-123825000D03*
D15*
X404495000Y-123825000D03*
D14*
X405765000Y-121285000D03*
X412115000Y-118745000D03*
%TD*%
D15*
%TO.C,SW89*%
X395605000Y-123825000D03*
D16*
X390525000Y-123825000D03*
D15*
X385445000Y-123825000D03*
D14*
X386715000Y-121285000D03*
X393065000Y-118745000D03*
%TD*%
D15*
%TO.C,SW88*%
X352742500Y-123825000D03*
D16*
X347662500Y-123825000D03*
D15*
X342582500Y-123825000D03*
D14*
X343852500Y-121285000D03*
X350202500Y-118745000D03*
%TD*%
D15*
%TO.C,SW87*%
X293211250Y-123825000D03*
D16*
X288131250Y-123825000D03*
D15*
X283051250Y-123825000D03*
D14*
X284321250Y-121285000D03*
X290671250Y-118745000D03*
%TD*%
D15*
%TO.C,SW86*%
X257492500Y-123825000D03*
D16*
X252412500Y-123825000D03*
D15*
X247332500Y-123825000D03*
D14*
X248602500Y-121285000D03*
X254952500Y-118745000D03*
%TD*%
D15*
%TO.C,SW85*%
X238442500Y-123825000D03*
D16*
X233362500Y-123825000D03*
D15*
X228282500Y-123825000D03*
D14*
X229552500Y-121285000D03*
X235902500Y-118745000D03*
%TD*%
D15*
%TO.C,SW84*%
X219392500Y-123825000D03*
D16*
X214312500Y-123825000D03*
D15*
X209232500Y-123825000D03*
D14*
X210502500Y-121285000D03*
X216852500Y-118745000D03*
%TD*%
D15*
%TO.C,SW83*%
X200342500Y-123825000D03*
D16*
X195262500Y-123825000D03*
D15*
X190182500Y-123825000D03*
D14*
X191452500Y-121285000D03*
X197802500Y-118745000D03*
%TD*%
D15*
%TO.C,SW82*%
X181292500Y-123825000D03*
D16*
X176212500Y-123825000D03*
D15*
X171132500Y-123825000D03*
D14*
X172402500Y-121285000D03*
X178752500Y-118745000D03*
%TD*%
D15*
%TO.C,SW81*%
X162242500Y-123825000D03*
D16*
X157162500Y-123825000D03*
D15*
X152082500Y-123825000D03*
D14*
X153352500Y-121285000D03*
X159702500Y-118745000D03*
%TD*%
D15*
%TO.C,SW80*%
X143192500Y-123825000D03*
D16*
X138112500Y-123825000D03*
D15*
X133032500Y-123825000D03*
D14*
X134302500Y-121285000D03*
X140652500Y-118745000D03*
%TD*%
D15*
%TO.C,SW79*%
X124142500Y-123825000D03*
D16*
X119062500Y-123825000D03*
D15*
X113982500Y-123825000D03*
D14*
X115252500Y-121285000D03*
X121602500Y-118745000D03*
%TD*%
D15*
%TO.C,SW78*%
X105092500Y-123825000D03*
D16*
X100012500Y-123825000D03*
D15*
X94932500Y-123825000D03*
D14*
X96202500Y-121285000D03*
X102552500Y-118745000D03*
%TD*%
D15*
%TO.C,SW77*%
X86042500Y-123825000D03*
D16*
X80962500Y-123825000D03*
D15*
X75882500Y-123825000D03*
D14*
X77152500Y-121285000D03*
X83502500Y-118745000D03*
%TD*%
D15*
%TO.C,SW76*%
X66992500Y-123825000D03*
D16*
X61912500Y-123825000D03*
D15*
X56832500Y-123825000D03*
D14*
X58102500Y-121285000D03*
X64452500Y-118745000D03*
%TD*%
D15*
%TO.C,SW75*%
X45561250Y-123825000D03*
D16*
X40481250Y-123825000D03*
D15*
X35401250Y-123825000D03*
D14*
X36671250Y-121285000D03*
X43021250Y-118745000D03*
%TD*%
D15*
%TO.C,SW74*%
X433705000Y-104775000D03*
D16*
X428625000Y-104775000D03*
D15*
X423545000Y-104775000D03*
D14*
X424815000Y-102235000D03*
X431165000Y-99695000D03*
%TD*%
D15*
%TO.C,SW73*%
X414655000Y-104775000D03*
D16*
X409575000Y-104775000D03*
D15*
X404495000Y-104775000D03*
D14*
X405765000Y-102235000D03*
X412115000Y-99695000D03*
%TD*%
D15*
%TO.C,SW72*%
X395605000Y-104775000D03*
D16*
X390525000Y-104775000D03*
D15*
X385445000Y-104775000D03*
D14*
X386715000Y-102235000D03*
X393065000Y-99695000D03*
%TD*%
D15*
%TO.C,SW71*%
X286067500Y-104775000D03*
D16*
X280987500Y-104775000D03*
D15*
X275907500Y-104775000D03*
D14*
X277177500Y-102235000D03*
X283527500Y-99695000D03*
%TD*%
%TO.C,SW70*%
X264477500Y-99695000D03*
X258127500Y-102235000D03*
D15*
X256857500Y-104775000D03*
D16*
X261937500Y-104775000D03*
D15*
X267017500Y-104775000D03*
%TD*%
%TO.C,SW69*%
X247967500Y-104775000D03*
D16*
X242887500Y-104775000D03*
D15*
X237807500Y-104775000D03*
D14*
X239077500Y-102235000D03*
X245427500Y-99695000D03*
%TD*%
D15*
%TO.C,SW68*%
X228917500Y-104775000D03*
D16*
X223837500Y-104775000D03*
D15*
X218757500Y-104775000D03*
D14*
X220027500Y-102235000D03*
X226377500Y-99695000D03*
%TD*%
D15*
%TO.C,SW67*%
X209867500Y-104775000D03*
D16*
X204787500Y-104775000D03*
D15*
X199707500Y-104775000D03*
D14*
X200977500Y-102235000D03*
X207327500Y-99695000D03*
%TD*%
D15*
%TO.C,SW66*%
X190817500Y-104775000D03*
D16*
X185737500Y-104775000D03*
D15*
X180657500Y-104775000D03*
D14*
X181927500Y-102235000D03*
X188277500Y-99695000D03*
%TD*%
%TO.C,SW65*%
X169227500Y-99695000D03*
X162877500Y-102235000D03*
D15*
X161607500Y-104775000D03*
D16*
X166687500Y-104775000D03*
D15*
X171767500Y-104775000D03*
%TD*%
%TO.C,SW64*%
X152717500Y-104775000D03*
D16*
X147637500Y-104775000D03*
D15*
X142557500Y-104775000D03*
D14*
X143827500Y-102235000D03*
X150177500Y-99695000D03*
%TD*%
D15*
%TO.C,SW63*%
X133667500Y-104775000D03*
D16*
X128587500Y-104775000D03*
D15*
X123507500Y-104775000D03*
D14*
X124777500Y-102235000D03*
X131127500Y-99695000D03*
%TD*%
D15*
%TO.C,SW62*%
X114617500Y-104775000D03*
D16*
X109537500Y-104775000D03*
D15*
X104457500Y-104775000D03*
D14*
X105727500Y-102235000D03*
X112077500Y-99695000D03*
%TD*%
D15*
%TO.C,SW60*%
X76517500Y-104775000D03*
D16*
X71437500Y-104775000D03*
D15*
X66357500Y-104775000D03*
D14*
X67627500Y-102235000D03*
X73977500Y-99695000D03*
%TD*%
D15*
%TO.C,SW59*%
X50323750Y-104775000D03*
D16*
X45243750Y-104775000D03*
D15*
X40163750Y-104775000D03*
D14*
X41433750Y-102235000D03*
X47783750Y-99695000D03*
%TD*%
D15*
%TO.C,SW58*%
X452755000Y-95250000D03*
D16*
X447675000Y-95250000D03*
D15*
X442595000Y-95250000D03*
D14*
X443865000Y-92710000D03*
X450215000Y-90170000D03*
%TD*%
D15*
%TO.C,SW57*%
X433705000Y-85725000D03*
D16*
X428625000Y-85725000D03*
D15*
X423545000Y-85725000D03*
D14*
X424815000Y-83185000D03*
X431165000Y-80645000D03*
%TD*%
D15*
%TO.C,SW56*%
X414655000Y-85725000D03*
D16*
X409575000Y-85725000D03*
D15*
X404495000Y-85725000D03*
D14*
X405765000Y-83185000D03*
X412115000Y-80645000D03*
%TD*%
D15*
%TO.C,SW55*%
X395605000Y-85725000D03*
D16*
X390525000Y-85725000D03*
D15*
X385445000Y-85725000D03*
D14*
X386715000Y-83185000D03*
X393065000Y-80645000D03*
%TD*%
D15*
%TO.C,SW54*%
X371792500Y-85725000D03*
D16*
X366712500Y-85725000D03*
D15*
X361632500Y-85725000D03*
D14*
X362902500Y-83185000D03*
X369252500Y-80645000D03*
%TD*%
D15*
%TO.C,SW53*%
X352742500Y-85725000D03*
D16*
X347662500Y-85725000D03*
D15*
X342582500Y-85725000D03*
D14*
X343852500Y-83185000D03*
X350202500Y-80645000D03*
%TD*%
D15*
%TO.C,SW52*%
X333692500Y-85725000D03*
D16*
X328612500Y-85725000D03*
D15*
X323532500Y-85725000D03*
D14*
X324802500Y-83185000D03*
X331152500Y-80645000D03*
%TD*%
D15*
%TO.C,SW51*%
X307498750Y-95250000D03*
D16*
X302418750Y-95250000D03*
D15*
X297338750Y-95250000D03*
D14*
X298608750Y-92710000D03*
X304958750Y-90170000D03*
%TD*%
D15*
%TO.C,SW50*%
X281305000Y-85725000D03*
D16*
X276225000Y-85725000D03*
D15*
X271145000Y-85725000D03*
D14*
X272415000Y-83185000D03*
X278765000Y-80645000D03*
%TD*%
D15*
%TO.C,SW49*%
X262255000Y-85725000D03*
D16*
X257175000Y-85725000D03*
D15*
X252095000Y-85725000D03*
D14*
X253365000Y-83185000D03*
X259715000Y-80645000D03*
%TD*%
D15*
%TO.C,SW48*%
X243205000Y-85725000D03*
D16*
X238125000Y-85725000D03*
D15*
X233045000Y-85725000D03*
D14*
X234315000Y-83185000D03*
X240665000Y-80645000D03*
%TD*%
D15*
%TO.C,SW47*%
X224155000Y-85725000D03*
D16*
X219075000Y-85725000D03*
D15*
X213995000Y-85725000D03*
D14*
X215265000Y-83185000D03*
X221615000Y-80645000D03*
%TD*%
D15*
%TO.C,SW46*%
X205105000Y-85725000D03*
D16*
X200025000Y-85725000D03*
D15*
X194945000Y-85725000D03*
D14*
X196215000Y-83185000D03*
X202565000Y-80645000D03*
%TD*%
D15*
%TO.C,SW45*%
X186055000Y-85725000D03*
D16*
X180975000Y-85725000D03*
D15*
X175895000Y-85725000D03*
D14*
X177165000Y-83185000D03*
X183515000Y-80645000D03*
%TD*%
D15*
%TO.C,SW44*%
X167005000Y-85725000D03*
D16*
X161925000Y-85725000D03*
D15*
X156845000Y-85725000D03*
D14*
X158115000Y-83185000D03*
X164465000Y-80645000D03*
%TD*%
D15*
%TO.C,SW43*%
X147955000Y-85725000D03*
D16*
X142875000Y-85725000D03*
D15*
X137795000Y-85725000D03*
D14*
X139065000Y-83185000D03*
X145415000Y-80645000D03*
%TD*%
D15*
%TO.C,SW42*%
X128905000Y-85725000D03*
D16*
X123825000Y-85725000D03*
D15*
X118745000Y-85725000D03*
D14*
X120015000Y-83185000D03*
X126365000Y-80645000D03*
%TD*%
D15*
%TO.C,SW41*%
X109855000Y-85725000D03*
D16*
X104775000Y-85725000D03*
D15*
X99695000Y-85725000D03*
D14*
X100965000Y-83185000D03*
X107315000Y-80645000D03*
%TD*%
D15*
%TO.C,SW40*%
X90805000Y-85725000D03*
D16*
X85725000Y-85725000D03*
D15*
X80645000Y-85725000D03*
D14*
X81915000Y-83185000D03*
X88265000Y-80645000D03*
%TD*%
D15*
%TO.C,SW39*%
X71755000Y-85725000D03*
D16*
X66675000Y-85725000D03*
D15*
X61595000Y-85725000D03*
D14*
X62865000Y-83185000D03*
X69215000Y-80645000D03*
%TD*%
D15*
%TO.C,SW38*%
X47942500Y-85725000D03*
D16*
X42862500Y-85725000D03*
D15*
X37782500Y-85725000D03*
D14*
X39052500Y-83185000D03*
X45402500Y-80645000D03*
%TD*%
D15*
%TO.C,SW37*%
X452755000Y-66675000D03*
D16*
X447675000Y-66675000D03*
D15*
X442595000Y-66675000D03*
D14*
X443865000Y-64135000D03*
X450215000Y-61595000D03*
%TD*%
D15*
%TO.C,SW36*%
X433705000Y-66675000D03*
D16*
X428625000Y-66675000D03*
D15*
X423545000Y-66675000D03*
D14*
X424815000Y-64135000D03*
X431165000Y-61595000D03*
%TD*%
D15*
%TO.C,SW35*%
X414655000Y-66675000D03*
D16*
X409575000Y-66675000D03*
D15*
X404495000Y-66675000D03*
D14*
X405765000Y-64135000D03*
X412115000Y-61595000D03*
%TD*%
D15*
%TO.C,SW34*%
X395605000Y-66675000D03*
D16*
X390525000Y-66675000D03*
D15*
X385445000Y-66675000D03*
D14*
X386715000Y-64135000D03*
X393065000Y-61595000D03*
%TD*%
D15*
%TO.C,SW33*%
X371792500Y-66675000D03*
D16*
X366712500Y-66675000D03*
D15*
X361632500Y-66675000D03*
D14*
X362902500Y-64135000D03*
X369252500Y-61595000D03*
%TD*%
D15*
%TO.C,SW32*%
X352742500Y-66675000D03*
D16*
X347662500Y-66675000D03*
D15*
X342582500Y-66675000D03*
D14*
X343852500Y-64135000D03*
X350202500Y-61595000D03*
%TD*%
D15*
%TO.C,SW31*%
X333692500Y-66675000D03*
D16*
X328612500Y-66675000D03*
D15*
X323532500Y-66675000D03*
D14*
X324802500Y-64135000D03*
X331152500Y-61595000D03*
%TD*%
D15*
%TO.C,SW30*%
X300355000Y-66675000D03*
D16*
X295275000Y-66675000D03*
D15*
X290195000Y-66675000D03*
D14*
X291465000Y-64135000D03*
X297815000Y-61595000D03*
%TD*%
D15*
%TO.C,SW29*%
X271780000Y-66675000D03*
D16*
X266700000Y-66675000D03*
D15*
X261620000Y-66675000D03*
D14*
X262890000Y-64135000D03*
X269240000Y-61595000D03*
%TD*%
D15*
%TO.C,SW28*%
X252730000Y-66675000D03*
D16*
X247650000Y-66675000D03*
D15*
X242570000Y-66675000D03*
D14*
X243840000Y-64135000D03*
X250190000Y-61595000D03*
%TD*%
D15*
%TO.C,SW27*%
X233680000Y-66675000D03*
D16*
X228600000Y-66675000D03*
D15*
X223520000Y-66675000D03*
D14*
X224790000Y-64135000D03*
X231140000Y-61595000D03*
%TD*%
D15*
%TO.C,SW26*%
X214630000Y-66675000D03*
D16*
X209550000Y-66675000D03*
D15*
X204470000Y-66675000D03*
D14*
X205740000Y-64135000D03*
X212090000Y-61595000D03*
%TD*%
D15*
%TO.C,SW25*%
X195580000Y-66675000D03*
D16*
X190500000Y-66675000D03*
D15*
X185420000Y-66675000D03*
D14*
X186690000Y-64135000D03*
X193040000Y-61595000D03*
%TD*%
D15*
%TO.C,SW24*%
X176530000Y-66675000D03*
D16*
X171450000Y-66675000D03*
D15*
X166370000Y-66675000D03*
D14*
X167640000Y-64135000D03*
X173990000Y-61595000D03*
%TD*%
D15*
%TO.C,SW23*%
X157480000Y-66675000D03*
D16*
X152400000Y-66675000D03*
D15*
X147320000Y-66675000D03*
D14*
X148590000Y-64135000D03*
X154940000Y-61595000D03*
%TD*%
D15*
%TO.C,SW22*%
X138430000Y-66675000D03*
D16*
X133350000Y-66675000D03*
D15*
X128270000Y-66675000D03*
D14*
X129540000Y-64135000D03*
X135890000Y-61595000D03*
%TD*%
D15*
%TO.C,SW21*%
X119380000Y-66675000D03*
D16*
X114300000Y-66675000D03*
D15*
X109220000Y-66675000D03*
D14*
X110490000Y-64135000D03*
X116840000Y-61595000D03*
%TD*%
D15*
%TO.C,SW20*%
X100330000Y-66675000D03*
D16*
X95250000Y-66675000D03*
D15*
X90170000Y-66675000D03*
D14*
X91440000Y-64135000D03*
X97790000Y-61595000D03*
%TD*%
D15*
%TO.C,SW19*%
X81280000Y-66675000D03*
D16*
X76200000Y-66675000D03*
D15*
X71120000Y-66675000D03*
D14*
X72390000Y-64135000D03*
X78740000Y-61595000D03*
%TD*%
D15*
%TO.C,SW18*%
X62230000Y-66675000D03*
D16*
X57150000Y-66675000D03*
D15*
X52070000Y-66675000D03*
D14*
X53340000Y-64135000D03*
X59690000Y-61595000D03*
%TD*%
D15*
%TO.C,SW17*%
X43180000Y-66675000D03*
D16*
X38100000Y-66675000D03*
D15*
X33020000Y-66675000D03*
D14*
X34290000Y-64135000D03*
X40640000Y-61595000D03*
%TD*%
D15*
%TO.C,SW16*%
X371792500Y-38100000D03*
D16*
X366712500Y-38100000D03*
D15*
X361632500Y-38100000D03*
D14*
X362902500Y-35560000D03*
X369252500Y-33020000D03*
%TD*%
D15*
%TO.C,SW15*%
X352742500Y-38100000D03*
D16*
X347662500Y-38100000D03*
D15*
X342582500Y-38100000D03*
D14*
X343852500Y-35560000D03*
X350202500Y-33020000D03*
%TD*%
D15*
%TO.C,SW14*%
X333692500Y-38100000D03*
D16*
X328612500Y-38100000D03*
D15*
X323532500Y-38100000D03*
D14*
X324802500Y-35560000D03*
X331152500Y-33020000D03*
%TD*%
D15*
%TO.C,SW13*%
X309880000Y-38100000D03*
D16*
X304800000Y-38100000D03*
D15*
X299720000Y-38100000D03*
D14*
X300990000Y-35560000D03*
X307340000Y-33020000D03*
%TD*%
D15*
%TO.C,SW12*%
X290830000Y-38100000D03*
D16*
X285750000Y-38100000D03*
D15*
X280670000Y-38100000D03*
D14*
X281940000Y-35560000D03*
X288290000Y-33020000D03*
%TD*%
D15*
%TO.C,SW10*%
X252730000Y-38100000D03*
D16*
X247650000Y-38100000D03*
D15*
X242570000Y-38100000D03*
D14*
X243840000Y-35560000D03*
X250190000Y-33020000D03*
%TD*%
D15*
%TO.C,SW9*%
X224155000Y-38100000D03*
D16*
X219075000Y-38100000D03*
D15*
X213995000Y-38100000D03*
D14*
X215265000Y-35560000D03*
X221615000Y-33020000D03*
%TD*%
D15*
%TO.C,SW8*%
X205105000Y-38100000D03*
D16*
X200025000Y-38100000D03*
D15*
X194945000Y-38100000D03*
D14*
X196215000Y-35560000D03*
X202565000Y-33020000D03*
%TD*%
D15*
%TO.C,SW7*%
X186055000Y-38100000D03*
D16*
X180975000Y-38100000D03*
D15*
X175895000Y-38100000D03*
D14*
X177165000Y-35560000D03*
X183515000Y-33020000D03*
%TD*%
D15*
%TO.C,SW6*%
X167005000Y-38100000D03*
D16*
X161925000Y-38100000D03*
D15*
X156845000Y-38100000D03*
D14*
X158115000Y-35560000D03*
X164465000Y-33020000D03*
%TD*%
D15*
%TO.C,SW5*%
X138430000Y-38100000D03*
D16*
X133350000Y-38100000D03*
D15*
X128270000Y-38100000D03*
D14*
X129540000Y-35560000D03*
X135890000Y-33020000D03*
%TD*%
D15*
%TO.C,SW4*%
X119380000Y-38100000D03*
D16*
X114300000Y-38100000D03*
D15*
X109220000Y-38100000D03*
D14*
X110490000Y-35560000D03*
X116840000Y-33020000D03*
%TD*%
D15*
%TO.C,SW3*%
X100330000Y-38100000D03*
D16*
X95250000Y-38100000D03*
D15*
X90170000Y-38100000D03*
D14*
X91440000Y-35560000D03*
X97790000Y-33020000D03*
%TD*%
D15*
%TO.C,SW2*%
X81280000Y-38100000D03*
D16*
X76200000Y-38100000D03*
D15*
X71120000Y-38100000D03*
D14*
X72390000Y-35560000D03*
X78740000Y-33020000D03*
%TD*%
D15*
%TO.C,SW1*%
X43180000Y-38100000D03*
D16*
X38100000Y-38100000D03*
D15*
X33020000Y-38100000D03*
D14*
X34290000Y-35560000D03*
X40640000Y-33020000D03*
%TD*%
D17*
%TO.C,S6*%
X440690000Y-145256250D03*
D16*
X455930000Y-145256250D03*
D17*
X440690000Y-121443750D03*
D16*
X455930000Y-121443750D03*
%TD*%
D17*
%TO.C,S5*%
X276225000Y-116840000D03*
D16*
X276225000Y-132080000D03*
D17*
X300037500Y-116840000D03*
D16*
X300037500Y-132080000D03*
%TD*%
D17*
%TO.C,S3*%
X440690000Y-107156250D03*
D16*
X455930000Y-107156250D03*
D17*
X440690000Y-83343750D03*
D16*
X455930000Y-83343750D03*
%TD*%
D17*
%TO.C,S2*%
X295433750Y-83343750D03*
X295433750Y-107156250D03*
D16*
X310673750Y-83343750D03*
X310673750Y-107156250D03*
%TD*%
D17*
%TO.C,S1*%
X109537500Y-135890000D03*
D16*
X109537500Y-151130000D03*
D17*
X209550000Y-135890000D03*
D16*
X209550000Y-151130000D03*
%TD*%
D19*
%TO.C,U1*%
X385275000Y-41910000D03*
D20*
X385275000Y-39370000D03*
X385275000Y-36830000D03*
X385275000Y-34290000D03*
%TD*%
D11*
%TO.C,R1*%
X470320000Y-102410000D03*
X462700000Y-102410000D03*
%TD*%
%TO.C,R2*%
X482810000Y-102410000D03*
X475190000Y-102410000D03*
%TD*%
D21*
%TO.C,ROT_SW1*%
X454925000Y-40600000D03*
X454925000Y-35600000D03*
D22*
X447925000Y-43700000D03*
X447925000Y-32500000D03*
D21*
X440425000Y-38100000D03*
X440425000Y-40600000D03*
D23*
X440425000Y-35600000D03*
%TD*%
D15*
%TO.C,SW11*%
X271780000Y-38100000D03*
D16*
X266700000Y-38100000D03*
D15*
X261620000Y-38100000D03*
D14*
X262890000Y-35560000D03*
X269240000Y-33020000D03*
%TD*%
M02*
