%TF.GenerationSoftware,KiCad,Pcbnew,10.0.4*%
%TF.CreationDate,2026-07-24T02:34:10+01:00*%
%TF.ProjectId,keeb,6b656562-2e6b-4696-9361-645f70636258,rev?*%
%TF.SameCoordinates,Original*%
%TF.FileFunction,Soldermask,Bot*%
%TF.FilePolarity,Negative*%
%FSLAX46Y46*%
G04 Gerber Fmt 4.6, Leading zero omitted, Abs format (unit mm)*
G04 Created by KiCad (PCBNEW 10.0.4) date 2026-07-24 02:34:10*
%MOMM*%
%LPD*%
G01*
G04 APERTURE LIST*
G04 Aperture macros list*
%AMRoundRect*
0 Rectangle with rounded corners*
0 $1 Rounding radius*
0 $2 $3 $4 $5 $6 $7 $8 $9 X,Y pos of 4 corners*
0 Add a 4 corners polygon primitive as box body*
4,1,4,$2,$3,$4,$5,$6,$7,$8,$9,$2,$3,0*
0 Add four circle primitives for the rounded corners*
1,1,$1+$1,$2,$3*
1,1,$1+$1,$4,$5*
1,1,$1+$1,$6,$7*
1,1,$1+$1,$8,$9*
0 Add four rect primitives between the rounded corners*
20,1,$1+$1,$2,$3,$4,$5,0*
20,1,$1+$1,$4,$5,$6,$7,0*
20,1,$1+$1,$6,$7,$8,$9,0*
20,1,$1+$1,$8,$9,$2,$3,0*%
%AMFreePoly0*
4,1,37,0.603843,0.796157,0.639018,0.796157,0.711114,0.766294,0.766294,0.711114,0.796157,0.639018,0.796157,0.603843,0.800000,0.600000,0.800000,-0.600000,0.796157,-0.603843,0.796157,-0.639018,0.766294,-0.711114,0.711114,-0.766294,0.639018,-0.796157,0.603843,-0.796157,0.600000,-0.800000,0.000000,-0.800000,0.000000,-0.796148,-0.078414,-0.796148,-0.232228,-0.765552,-0.377117,-0.705537,
-0.507515,-0.618408,-0.618408,-0.507515,-0.705537,-0.377117,-0.765552,-0.232228,-0.796148,-0.078414,-0.796148,0.078414,-0.765552,0.232228,-0.705537,0.377117,-0.618408,0.507515,-0.507515,0.618408,-0.377117,0.705537,-0.232228,0.765552,-0.078414,0.796148,0.000000,0.796148,0.000000,0.800000,0.600000,0.800000,0.603843,0.796157,0.603843,0.796157,$1*%
%AMFreePoly1*
4,1,37,0.000000,0.796148,0.078414,0.796148,0.232228,0.765552,0.377117,0.705537,0.507515,0.618408,0.618408,0.507515,0.705537,0.377117,0.765552,0.232228,0.796148,0.078414,0.796148,-0.078414,0.765552,-0.232228,0.705537,-0.377117,0.618408,-0.507515,0.507515,-0.618408,0.377117,-0.705537,0.232228,-0.765552,0.078414,-0.796148,0.000000,-0.796148,0.000000,-0.800000,-0.600000,-0.800000,
-0.603843,-0.796157,-0.639018,-0.796157,-0.711114,-0.766294,-0.766294,-0.711114,-0.796157,-0.639018,-0.796157,-0.603843,-0.800000,-0.600000,-0.800000,0.600000,-0.796157,0.603843,-0.796157,0.639018,-0.766294,0.711114,-0.711114,0.766294,-0.639018,0.796157,-0.603843,0.796157,-0.600000,0.800000,0.000000,0.800000,0.000000,0.796148,0.000000,0.796148,$1*%
G04 Aperture macros list end*
%ADD10RoundRect,0.200000X-0.600000X-0.600000X0.600000X-0.600000X0.600000X0.600000X-0.600000X0.600000X0*%
%ADD11C,1.600000*%
%ADD12FreePoly0,0.000000*%
%ADD13FreePoly1,0.000000*%
%ADD14C,3.300000*%
%ADD15RoundRect,0.250000X1.025000X1.000000X-1.025000X1.000000X-1.025000X-1.000000X1.025000X-1.000000X0*%
%ADD16C,1.750000*%
%ADD17C,3.987800*%
%ADD18RoundRect,0.205000X-0.470000X-0.205000X0.470000X-0.205000X0.470000X0.205000X-0.470000X0.205000X0*%
%ADD19C,3.048000*%
%ADD20RoundRect,0.250000X0.550000X0.550000X-0.550000X0.550000X-0.550000X-0.550000X0.550000X-0.550000X0*%
%ADD21RoundRect,0.250000X-0.650000X0.412500X-0.650000X-0.412500X0.650000X-0.412500X0.650000X0.412500X0*%
%ADD22RoundRect,0.170000X0.680000X-0.680000X0.680000X0.680000X-0.680000X0.680000X-0.680000X-0.680000X0*%
%ADD23C,1.700000*%
%ADD24C,2.000000*%
%ADD25R,3.000000X2.500000*%
%ADD26R,2.000000X2.000000*%
%ADD27RoundRect,0.250000X0.300000X-0.300000X0.300000X0.300000X-0.300000X0.300000X-0.300000X-0.300000X0*%
G04 APERTURE END LIST*
D10*
%TO.C,A1*%
X466390000Y-25860000D03*
D11*
X466390000Y-28400000D03*
D12*
X466390000Y-30940000D03*
D11*
X466390000Y-33480000D03*
X466390000Y-36020000D03*
X466390000Y-38560000D03*
X466390000Y-41100000D03*
D12*
X466390000Y-43640000D03*
D11*
X466390000Y-46180000D03*
X466390000Y-48720000D03*
X466390000Y-51260000D03*
X466390000Y-53800000D03*
D12*
X466390000Y-56340000D03*
D11*
X466390000Y-58880000D03*
X466390000Y-61420000D03*
X466390000Y-63960000D03*
X466390000Y-66500000D03*
D12*
X466390000Y-69040000D03*
D11*
X466390000Y-71580000D03*
X466390000Y-74120000D03*
X484170000Y-74120000D03*
X484170000Y-71580000D03*
D13*
X484170000Y-69040000D03*
D11*
X484170000Y-66500000D03*
X484170000Y-63960000D03*
X484170000Y-61420000D03*
X484170000Y-58880000D03*
D13*
X484170000Y-56340000D03*
D11*
X484170000Y-53800000D03*
X484170000Y-51260000D03*
X484170000Y-48720000D03*
X484170000Y-46180000D03*
D13*
X484170000Y-43640000D03*
D11*
X484170000Y-41100000D03*
X484170000Y-38560000D03*
X484170000Y-36020000D03*
X484170000Y-33480000D03*
D13*
X484170000Y-30940000D03*
D11*
X484170000Y-28400000D03*
X484170000Y-25860000D03*
%TD*%
D14*
%TO.C,SW94*%
X66833750Y-137795000D03*
D15*
X70383750Y-137795000D03*
X56933750Y-140335000D03*
D14*
X60483750Y-140335000D03*
D16*
X59213750Y-142875000D03*
D17*
X64293750Y-142875000D03*
D16*
X69373750Y-142875000D03*
%TD*%
D14*
%TO.C,SW61*%
X93027500Y-99695000D03*
D15*
X96577500Y-99695000D03*
X83127500Y-102235000D03*
D14*
X86677500Y-102235000D03*
D16*
X85407500Y-104775000D03*
D17*
X90487500Y-104775000D03*
D16*
X95567500Y-104775000D03*
%TD*%
D18*
%TO.C,LED40*%
X83000000Y-90055000D03*
X83000000Y-91555000D03*
X88450000Y-91555000D03*
X88450000Y-90055000D03*
%TD*%
D17*
%TO.C,S4*%
X307181250Y-74930000D03*
D19*
X307181250Y-59690000D03*
D17*
X283368750Y-74930000D03*
D19*
X283368750Y-59690000D03*
%TD*%
D11*
%TO.C,R3*%
X39020000Y-49560000D03*
X46640000Y-49560000D03*
%TD*%
D20*
%TO.C,U2*%
X476640000Y-143140000D03*
D11*
X476640000Y-140600000D03*
X476640000Y-138060000D03*
X476640000Y-135520000D03*
X476640000Y-132980000D03*
X476640000Y-130440000D03*
X476640000Y-127900000D03*
X476640000Y-125360000D03*
X476640000Y-122820000D03*
X476640000Y-120280000D03*
X476640000Y-117740000D03*
X476640000Y-115200000D03*
X476640000Y-112660000D03*
X476640000Y-110120000D03*
X469020000Y-110120000D03*
X469020000Y-112660000D03*
X469020000Y-115200000D03*
X469020000Y-117740000D03*
X469020000Y-120280000D03*
X469020000Y-122820000D03*
X469020000Y-125360000D03*
X469020000Y-127900000D03*
X469020000Y-130440000D03*
X469020000Y-132980000D03*
X469020000Y-135520000D03*
X469020000Y-138060000D03*
X469020000Y-140600000D03*
X469020000Y-143140000D03*
%TD*%
D16*
%TO.C,SW105*%
X433705000Y-142875000D03*
D17*
X428625000Y-142875000D03*
D16*
X423545000Y-142875000D03*
D14*
X424815000Y-140335000D03*
D15*
X421265000Y-140335000D03*
X434715000Y-137795000D03*
D14*
X431165000Y-137795000D03*
%TD*%
D16*
%TO.C,SW104*%
X405130000Y-142875000D03*
D17*
X400050000Y-142875000D03*
D16*
X394970000Y-142875000D03*
D14*
X396240000Y-140335000D03*
D15*
X392690000Y-140335000D03*
X406140000Y-137795000D03*
D14*
X402590000Y-137795000D03*
%TD*%
D16*
%TO.C,SW103*%
X371792500Y-142875000D03*
D17*
X366712500Y-142875000D03*
D16*
X361632500Y-142875000D03*
D14*
X362902500Y-140335000D03*
D15*
X359352500Y-140335000D03*
X372802500Y-137795000D03*
D14*
X369252500Y-137795000D03*
%TD*%
D16*
%TO.C,SW102*%
X352742500Y-142875000D03*
D17*
X347662500Y-142875000D03*
D16*
X342582500Y-142875000D03*
D14*
X343852500Y-140335000D03*
D15*
X340302500Y-140335000D03*
X353752500Y-137795000D03*
D14*
X350202500Y-137795000D03*
%TD*%
D16*
%TO.C,SW101*%
X333692500Y-142875000D03*
D17*
X328612500Y-142875000D03*
D16*
X323532500Y-142875000D03*
D14*
X324802500Y-140335000D03*
D15*
X321252500Y-140335000D03*
X334702500Y-137795000D03*
D14*
X331152500Y-137795000D03*
%TD*%
D16*
%TO.C,SW100*%
X307498750Y-142875000D03*
D17*
X302418750Y-142875000D03*
D16*
X297338750Y-142875000D03*
D14*
X298608750Y-140335000D03*
D15*
X295058750Y-140335000D03*
X308508750Y-137795000D03*
D14*
X304958750Y-137795000D03*
%TD*%
D16*
%TO.C,SW99*%
X283686250Y-142875000D03*
D17*
X278606250Y-142875000D03*
D16*
X273526250Y-142875000D03*
D14*
X274796250Y-140335000D03*
D15*
X271246250Y-140335000D03*
X284696250Y-137795000D03*
D14*
X281146250Y-137795000D03*
%TD*%
D16*
%TO.C,SW98*%
X259873750Y-142875000D03*
D17*
X254793750Y-142875000D03*
D16*
X249713750Y-142875000D03*
D14*
X250983750Y-140335000D03*
D15*
X247433750Y-140335000D03*
X260883750Y-137795000D03*
D14*
X257333750Y-137795000D03*
%TD*%
D16*
%TO.C,SW97*%
X236061250Y-142875000D03*
D17*
X230981250Y-142875000D03*
D16*
X225901250Y-142875000D03*
D14*
X227171250Y-140335000D03*
D15*
X223621250Y-140335000D03*
X237071250Y-137795000D03*
D14*
X233521250Y-137795000D03*
%TD*%
%TO.C,SW96*%
X162083750Y-137795000D03*
D15*
X165633750Y-137795000D03*
X152183750Y-140335000D03*
D14*
X155733750Y-140335000D03*
D16*
X154463750Y-142875000D03*
D17*
X159543750Y-142875000D03*
D16*
X164623750Y-142875000D03*
%TD*%
%TO.C,SW95*%
X93186250Y-142875000D03*
D17*
X88106250Y-142875000D03*
D16*
X83026250Y-142875000D03*
D14*
X84296250Y-140335000D03*
D15*
X80746250Y-140335000D03*
X94196250Y-137795000D03*
D14*
X90646250Y-137795000D03*
%TD*%
D16*
%TO.C,SW93*%
X45561250Y-142875000D03*
D17*
X40481250Y-142875000D03*
D16*
X35401250Y-142875000D03*
D14*
X36671250Y-140335000D03*
D15*
X33121250Y-140335000D03*
X46571250Y-137795000D03*
D14*
X43021250Y-137795000D03*
%TD*%
D16*
%TO.C,SW92*%
X452755000Y-133350000D03*
D17*
X447675000Y-133350000D03*
D16*
X442595000Y-133350000D03*
D14*
X443865000Y-130810000D03*
D15*
X440315000Y-130810000D03*
X453765000Y-128270000D03*
D14*
X450215000Y-128270000D03*
%TD*%
D16*
%TO.C,SW91*%
X433705000Y-123825000D03*
D17*
X428625000Y-123825000D03*
D16*
X423545000Y-123825000D03*
D14*
X424815000Y-121285000D03*
D15*
X421265000Y-121285000D03*
X434715000Y-118745000D03*
D14*
X431165000Y-118745000D03*
%TD*%
D16*
%TO.C,SW90*%
X414655000Y-123825000D03*
D17*
X409575000Y-123825000D03*
D16*
X404495000Y-123825000D03*
D14*
X405765000Y-121285000D03*
D15*
X402215000Y-121285000D03*
X415665000Y-118745000D03*
D14*
X412115000Y-118745000D03*
%TD*%
D16*
%TO.C,SW89*%
X395605000Y-123825000D03*
D17*
X390525000Y-123825000D03*
D16*
X385445000Y-123825000D03*
D14*
X386715000Y-121285000D03*
D15*
X383165000Y-121285000D03*
X396615000Y-118745000D03*
D14*
X393065000Y-118745000D03*
%TD*%
D16*
%TO.C,SW88*%
X352742500Y-123825000D03*
D17*
X347662500Y-123825000D03*
D16*
X342582500Y-123825000D03*
D14*
X343852500Y-121285000D03*
D15*
X340302500Y-121285000D03*
X353752500Y-118745000D03*
D14*
X350202500Y-118745000D03*
%TD*%
D16*
%TO.C,SW87*%
X293211250Y-123825000D03*
D17*
X288131250Y-123825000D03*
D16*
X283051250Y-123825000D03*
D14*
X284321250Y-121285000D03*
D15*
X280771250Y-121285000D03*
X294221250Y-118745000D03*
D14*
X290671250Y-118745000D03*
%TD*%
D16*
%TO.C,SW86*%
X257492500Y-123825000D03*
D17*
X252412500Y-123825000D03*
D16*
X247332500Y-123825000D03*
D14*
X248602500Y-121285000D03*
D15*
X245052500Y-121285000D03*
X258502500Y-118745000D03*
D14*
X254952500Y-118745000D03*
%TD*%
D16*
%TO.C,SW85*%
X238442500Y-123825000D03*
D17*
X233362500Y-123825000D03*
D16*
X228282500Y-123825000D03*
D14*
X229552500Y-121285000D03*
D15*
X226002500Y-121285000D03*
X239452500Y-118745000D03*
D14*
X235902500Y-118745000D03*
%TD*%
D16*
%TO.C,SW84*%
X219392500Y-123825000D03*
D17*
X214312500Y-123825000D03*
D16*
X209232500Y-123825000D03*
D14*
X210502500Y-121285000D03*
D15*
X206952500Y-121285000D03*
X220402500Y-118745000D03*
D14*
X216852500Y-118745000D03*
%TD*%
D16*
%TO.C,SW83*%
X200342500Y-123825000D03*
D17*
X195262500Y-123825000D03*
D16*
X190182500Y-123825000D03*
D14*
X191452500Y-121285000D03*
D15*
X187902500Y-121285000D03*
X201352500Y-118745000D03*
D14*
X197802500Y-118745000D03*
%TD*%
D16*
%TO.C,SW82*%
X181292500Y-123825000D03*
D17*
X176212500Y-123825000D03*
D16*
X171132500Y-123825000D03*
D14*
X172402500Y-121285000D03*
D15*
X168852500Y-121285000D03*
X182302500Y-118745000D03*
D14*
X178752500Y-118745000D03*
%TD*%
D16*
%TO.C,SW81*%
X162242500Y-123825000D03*
D17*
X157162500Y-123825000D03*
D16*
X152082500Y-123825000D03*
D14*
X153352500Y-121285000D03*
D15*
X149802500Y-121285000D03*
X163252500Y-118745000D03*
D14*
X159702500Y-118745000D03*
%TD*%
D16*
%TO.C,SW80*%
X143192500Y-123825000D03*
D17*
X138112500Y-123825000D03*
D16*
X133032500Y-123825000D03*
D14*
X134302500Y-121285000D03*
D15*
X130752500Y-121285000D03*
X144202500Y-118745000D03*
D14*
X140652500Y-118745000D03*
%TD*%
D16*
%TO.C,SW79*%
X124142500Y-123825000D03*
D17*
X119062500Y-123825000D03*
D16*
X113982500Y-123825000D03*
D14*
X115252500Y-121285000D03*
D15*
X111702500Y-121285000D03*
X125152500Y-118745000D03*
D14*
X121602500Y-118745000D03*
%TD*%
D16*
%TO.C,SW78*%
X105092500Y-123825000D03*
D17*
X100012500Y-123825000D03*
D16*
X94932500Y-123825000D03*
D14*
X96202500Y-121285000D03*
D15*
X92652500Y-121285000D03*
X106102500Y-118745000D03*
D14*
X102552500Y-118745000D03*
%TD*%
D16*
%TO.C,SW77*%
X86042500Y-123825000D03*
D17*
X80962500Y-123825000D03*
D16*
X75882500Y-123825000D03*
D14*
X77152500Y-121285000D03*
D15*
X73602500Y-121285000D03*
X87052500Y-118745000D03*
D14*
X83502500Y-118745000D03*
%TD*%
D16*
%TO.C,SW76*%
X66992500Y-123825000D03*
D17*
X61912500Y-123825000D03*
D16*
X56832500Y-123825000D03*
D14*
X58102500Y-121285000D03*
D15*
X54552500Y-121285000D03*
X68002500Y-118745000D03*
D14*
X64452500Y-118745000D03*
%TD*%
D16*
%TO.C,SW75*%
X45561250Y-123825000D03*
D17*
X40481250Y-123825000D03*
D16*
X35401250Y-123825000D03*
D14*
X36671250Y-121285000D03*
D15*
X33121250Y-121285000D03*
X46571250Y-118745000D03*
D14*
X43021250Y-118745000D03*
%TD*%
D16*
%TO.C,SW74*%
X433705000Y-104775000D03*
D17*
X428625000Y-104775000D03*
D16*
X423545000Y-104775000D03*
D14*
X424815000Y-102235000D03*
D15*
X421265000Y-102235000D03*
X434715000Y-99695000D03*
D14*
X431165000Y-99695000D03*
%TD*%
D16*
%TO.C,SW73*%
X414655000Y-104775000D03*
D17*
X409575000Y-104775000D03*
D16*
X404495000Y-104775000D03*
D14*
X405765000Y-102235000D03*
D15*
X402215000Y-102235000D03*
X415665000Y-99695000D03*
D14*
X412115000Y-99695000D03*
%TD*%
D16*
%TO.C,SW72*%
X395605000Y-104775000D03*
D17*
X390525000Y-104775000D03*
D16*
X385445000Y-104775000D03*
D14*
X386715000Y-102235000D03*
D15*
X383165000Y-102235000D03*
X396615000Y-99695000D03*
D14*
X393065000Y-99695000D03*
%TD*%
D16*
%TO.C,SW71*%
X286067500Y-104775000D03*
D17*
X280987500Y-104775000D03*
D16*
X275907500Y-104775000D03*
D14*
X277177500Y-102235000D03*
D15*
X273627500Y-102235000D03*
X287077500Y-99695000D03*
D14*
X283527500Y-99695000D03*
%TD*%
%TO.C,SW70*%
X264477500Y-99695000D03*
D15*
X268027500Y-99695000D03*
X254577500Y-102235000D03*
D14*
X258127500Y-102235000D03*
D16*
X256857500Y-104775000D03*
D17*
X261937500Y-104775000D03*
D16*
X267017500Y-104775000D03*
%TD*%
%TO.C,SW69*%
X247967500Y-104775000D03*
D17*
X242887500Y-104775000D03*
D16*
X237807500Y-104775000D03*
D14*
X239077500Y-102235000D03*
D15*
X235527500Y-102235000D03*
X248977500Y-99695000D03*
D14*
X245427500Y-99695000D03*
%TD*%
D16*
%TO.C,SW68*%
X228917500Y-104775000D03*
D17*
X223837500Y-104775000D03*
D16*
X218757500Y-104775000D03*
D14*
X220027500Y-102235000D03*
D15*
X216477500Y-102235000D03*
X229927500Y-99695000D03*
D14*
X226377500Y-99695000D03*
%TD*%
D16*
%TO.C,SW67*%
X209867500Y-104775000D03*
D17*
X204787500Y-104775000D03*
D16*
X199707500Y-104775000D03*
D14*
X200977500Y-102235000D03*
D15*
X197427500Y-102235000D03*
X210877500Y-99695000D03*
D14*
X207327500Y-99695000D03*
%TD*%
D16*
%TO.C,SW66*%
X190817500Y-104775000D03*
D17*
X185737500Y-104775000D03*
D16*
X180657500Y-104775000D03*
D14*
X181927500Y-102235000D03*
D15*
X178377500Y-102235000D03*
X191827500Y-99695000D03*
D14*
X188277500Y-99695000D03*
%TD*%
%TO.C,SW65*%
X169227500Y-99695000D03*
D15*
X172777500Y-99695000D03*
X159327500Y-102235000D03*
D14*
X162877500Y-102235000D03*
D16*
X161607500Y-104775000D03*
D17*
X166687500Y-104775000D03*
D16*
X171767500Y-104775000D03*
%TD*%
%TO.C,SW64*%
X152717500Y-104775000D03*
D17*
X147637500Y-104775000D03*
D16*
X142557500Y-104775000D03*
D14*
X143827500Y-102235000D03*
D15*
X140277500Y-102235000D03*
X153727500Y-99695000D03*
D14*
X150177500Y-99695000D03*
%TD*%
D16*
%TO.C,SW63*%
X133667500Y-104775000D03*
D17*
X128587500Y-104775000D03*
D16*
X123507500Y-104775000D03*
D14*
X124777500Y-102235000D03*
D15*
X121227500Y-102235000D03*
X134677500Y-99695000D03*
D14*
X131127500Y-99695000D03*
%TD*%
D16*
%TO.C,SW62*%
X114617500Y-104775000D03*
D17*
X109537500Y-104775000D03*
D16*
X104457500Y-104775000D03*
D14*
X105727500Y-102235000D03*
D15*
X102177500Y-102235000D03*
X115627500Y-99695000D03*
D14*
X112077500Y-99695000D03*
%TD*%
D16*
%TO.C,SW60*%
X76517500Y-104775000D03*
D17*
X71437500Y-104775000D03*
D16*
X66357500Y-104775000D03*
D14*
X67627500Y-102235000D03*
D15*
X64077500Y-102235000D03*
X77527500Y-99695000D03*
D14*
X73977500Y-99695000D03*
%TD*%
D16*
%TO.C,SW59*%
X50323750Y-104775000D03*
D17*
X45243750Y-104775000D03*
D16*
X40163750Y-104775000D03*
D14*
X41433750Y-102235000D03*
D15*
X37883750Y-102235000D03*
X51333750Y-99695000D03*
D14*
X47783750Y-99695000D03*
%TD*%
D16*
%TO.C,SW58*%
X452755000Y-95250000D03*
D17*
X447675000Y-95250000D03*
D16*
X442595000Y-95250000D03*
D14*
X443865000Y-92710000D03*
D15*
X440315000Y-92710000D03*
X453765000Y-90170000D03*
D14*
X450215000Y-90170000D03*
%TD*%
D16*
%TO.C,SW57*%
X433705000Y-85725000D03*
D17*
X428625000Y-85725000D03*
D16*
X423545000Y-85725000D03*
D14*
X424815000Y-83185000D03*
D15*
X421265000Y-83185000D03*
X434715000Y-80645000D03*
D14*
X431165000Y-80645000D03*
%TD*%
D16*
%TO.C,SW56*%
X414655000Y-85725000D03*
D17*
X409575000Y-85725000D03*
D16*
X404495000Y-85725000D03*
D14*
X405765000Y-83185000D03*
D15*
X402215000Y-83185000D03*
X415665000Y-80645000D03*
D14*
X412115000Y-80645000D03*
%TD*%
D16*
%TO.C,SW55*%
X395605000Y-85725000D03*
D17*
X390525000Y-85725000D03*
D16*
X385445000Y-85725000D03*
D14*
X386715000Y-83185000D03*
D15*
X383165000Y-83185000D03*
X396615000Y-80645000D03*
D14*
X393065000Y-80645000D03*
%TD*%
D16*
%TO.C,SW54*%
X371792500Y-85725000D03*
D17*
X366712500Y-85725000D03*
D16*
X361632500Y-85725000D03*
D14*
X362902500Y-83185000D03*
D15*
X359352500Y-83185000D03*
X372802500Y-80645000D03*
D14*
X369252500Y-80645000D03*
%TD*%
D16*
%TO.C,SW53*%
X352742500Y-85725000D03*
D17*
X347662500Y-85725000D03*
D16*
X342582500Y-85725000D03*
D14*
X343852500Y-83185000D03*
D15*
X340302500Y-83185000D03*
X353752500Y-80645000D03*
D14*
X350202500Y-80645000D03*
%TD*%
D16*
%TO.C,SW52*%
X333692500Y-85725000D03*
D17*
X328612500Y-85725000D03*
D16*
X323532500Y-85725000D03*
D14*
X324802500Y-83185000D03*
D15*
X321252500Y-83185000D03*
X334702500Y-80645000D03*
D14*
X331152500Y-80645000D03*
%TD*%
D16*
%TO.C,SW51*%
X307498750Y-95250000D03*
D17*
X302418750Y-95250000D03*
D16*
X297338750Y-95250000D03*
D14*
X298608750Y-92710000D03*
D15*
X295058750Y-92710000D03*
X308508750Y-90170000D03*
D14*
X304958750Y-90170000D03*
%TD*%
D16*
%TO.C,SW50*%
X281305000Y-85725000D03*
D17*
X276225000Y-85725000D03*
D16*
X271145000Y-85725000D03*
D14*
X272415000Y-83185000D03*
D15*
X268865000Y-83185000D03*
X282315000Y-80645000D03*
D14*
X278765000Y-80645000D03*
%TD*%
D16*
%TO.C,SW49*%
X262255000Y-85725000D03*
D17*
X257175000Y-85725000D03*
D16*
X252095000Y-85725000D03*
D14*
X253365000Y-83185000D03*
D15*
X249815000Y-83185000D03*
X263265000Y-80645000D03*
D14*
X259715000Y-80645000D03*
%TD*%
D16*
%TO.C,SW48*%
X243205000Y-85725000D03*
D17*
X238125000Y-85725000D03*
D16*
X233045000Y-85725000D03*
D14*
X234315000Y-83185000D03*
D15*
X230765000Y-83185000D03*
X244215000Y-80645000D03*
D14*
X240665000Y-80645000D03*
%TD*%
D16*
%TO.C,SW47*%
X224155000Y-85725000D03*
D17*
X219075000Y-85725000D03*
D16*
X213995000Y-85725000D03*
D14*
X215265000Y-83185000D03*
D15*
X211715000Y-83185000D03*
X225165000Y-80645000D03*
D14*
X221615000Y-80645000D03*
%TD*%
D16*
%TO.C,SW46*%
X205105000Y-85725000D03*
D17*
X200025000Y-85725000D03*
D16*
X194945000Y-85725000D03*
D14*
X196215000Y-83185000D03*
D15*
X192665000Y-83185000D03*
X206115000Y-80645000D03*
D14*
X202565000Y-80645000D03*
%TD*%
D16*
%TO.C,SW45*%
X186055000Y-85725000D03*
D17*
X180975000Y-85725000D03*
D16*
X175895000Y-85725000D03*
D14*
X177165000Y-83185000D03*
D15*
X173615000Y-83185000D03*
X187065000Y-80645000D03*
D14*
X183515000Y-80645000D03*
%TD*%
D16*
%TO.C,SW44*%
X167005000Y-85725000D03*
D17*
X161925000Y-85725000D03*
D16*
X156845000Y-85725000D03*
D14*
X158115000Y-83185000D03*
D15*
X154565000Y-83185000D03*
X168015000Y-80645000D03*
D14*
X164465000Y-80645000D03*
%TD*%
D16*
%TO.C,SW43*%
X147955000Y-85725000D03*
D17*
X142875000Y-85725000D03*
D16*
X137795000Y-85725000D03*
D14*
X139065000Y-83185000D03*
D15*
X135515000Y-83185000D03*
X148965000Y-80645000D03*
D14*
X145415000Y-80645000D03*
%TD*%
D16*
%TO.C,SW42*%
X128905000Y-85725000D03*
D17*
X123825000Y-85725000D03*
D16*
X118745000Y-85725000D03*
D14*
X120015000Y-83185000D03*
D15*
X116465000Y-83185000D03*
X129915000Y-80645000D03*
D14*
X126365000Y-80645000D03*
%TD*%
D16*
%TO.C,SW41*%
X109855000Y-85725000D03*
D17*
X104775000Y-85725000D03*
D16*
X99695000Y-85725000D03*
D14*
X100965000Y-83185000D03*
D15*
X97415000Y-83185000D03*
X110865000Y-80645000D03*
D14*
X107315000Y-80645000D03*
%TD*%
D16*
%TO.C,SW40*%
X90805000Y-85725000D03*
D17*
X85725000Y-85725000D03*
D16*
X80645000Y-85725000D03*
D14*
X81915000Y-83185000D03*
D15*
X78365000Y-83185000D03*
X91815000Y-80645000D03*
D14*
X88265000Y-80645000D03*
%TD*%
D16*
%TO.C,SW39*%
X71755000Y-85725000D03*
D17*
X66675000Y-85725000D03*
D16*
X61595000Y-85725000D03*
D14*
X62865000Y-83185000D03*
D15*
X59315000Y-83185000D03*
X72765000Y-80645000D03*
D14*
X69215000Y-80645000D03*
%TD*%
D16*
%TO.C,SW38*%
X47942500Y-85725000D03*
D17*
X42862500Y-85725000D03*
D16*
X37782500Y-85725000D03*
D14*
X39052500Y-83185000D03*
D15*
X35502500Y-83185000D03*
X48952500Y-80645000D03*
D14*
X45402500Y-80645000D03*
%TD*%
D16*
%TO.C,SW37*%
X452755000Y-66675000D03*
D17*
X447675000Y-66675000D03*
D16*
X442595000Y-66675000D03*
D14*
X443865000Y-64135000D03*
D15*
X440315000Y-64135000D03*
X453765000Y-61595000D03*
D14*
X450215000Y-61595000D03*
%TD*%
D16*
%TO.C,SW36*%
X433705000Y-66675000D03*
D17*
X428625000Y-66675000D03*
D16*
X423545000Y-66675000D03*
D14*
X424815000Y-64135000D03*
D15*
X421265000Y-64135000D03*
X434715000Y-61595000D03*
D14*
X431165000Y-61595000D03*
%TD*%
D16*
%TO.C,SW35*%
X414655000Y-66675000D03*
D17*
X409575000Y-66675000D03*
D16*
X404495000Y-66675000D03*
D14*
X405765000Y-64135000D03*
D15*
X402215000Y-64135000D03*
X415665000Y-61595000D03*
D14*
X412115000Y-61595000D03*
%TD*%
D16*
%TO.C,SW34*%
X395605000Y-66675000D03*
D17*
X390525000Y-66675000D03*
D16*
X385445000Y-66675000D03*
D14*
X386715000Y-64135000D03*
D15*
X383165000Y-64135000D03*
X396615000Y-61595000D03*
D14*
X393065000Y-61595000D03*
%TD*%
D16*
%TO.C,SW33*%
X371792500Y-66675000D03*
D17*
X366712500Y-66675000D03*
D16*
X361632500Y-66675000D03*
D14*
X362902500Y-64135000D03*
D15*
X359352500Y-64135000D03*
X372802500Y-61595000D03*
D14*
X369252500Y-61595000D03*
%TD*%
D16*
%TO.C,SW32*%
X352742500Y-66675000D03*
D17*
X347662500Y-66675000D03*
D16*
X342582500Y-66675000D03*
D14*
X343852500Y-64135000D03*
D15*
X340302500Y-64135000D03*
X353752500Y-61595000D03*
D14*
X350202500Y-61595000D03*
%TD*%
D16*
%TO.C,SW31*%
X333692500Y-66675000D03*
D17*
X328612500Y-66675000D03*
D16*
X323532500Y-66675000D03*
D14*
X324802500Y-64135000D03*
D15*
X321252500Y-64135000D03*
X334702500Y-61595000D03*
D14*
X331152500Y-61595000D03*
%TD*%
D16*
%TO.C,SW30*%
X300355000Y-66675000D03*
D17*
X295275000Y-66675000D03*
D16*
X290195000Y-66675000D03*
D14*
X291465000Y-64135000D03*
D15*
X287915000Y-64135000D03*
X301365000Y-61595000D03*
D14*
X297815000Y-61595000D03*
%TD*%
D16*
%TO.C,SW29*%
X271780000Y-66675000D03*
D17*
X266700000Y-66675000D03*
D16*
X261620000Y-66675000D03*
D14*
X262890000Y-64135000D03*
D15*
X259340000Y-64135000D03*
X272790000Y-61595000D03*
D14*
X269240000Y-61595000D03*
%TD*%
D16*
%TO.C,SW28*%
X252730000Y-66675000D03*
D17*
X247650000Y-66675000D03*
D16*
X242570000Y-66675000D03*
D14*
X243840000Y-64135000D03*
D15*
X240290000Y-64135000D03*
X253740000Y-61595000D03*
D14*
X250190000Y-61595000D03*
%TD*%
D16*
%TO.C,SW27*%
X233680000Y-66675000D03*
D17*
X228600000Y-66675000D03*
D16*
X223520000Y-66675000D03*
D14*
X224790000Y-64135000D03*
D15*
X221240000Y-64135000D03*
X234690000Y-61595000D03*
D14*
X231140000Y-61595000D03*
%TD*%
D16*
%TO.C,SW26*%
X214630000Y-66675000D03*
D17*
X209550000Y-66675000D03*
D16*
X204470000Y-66675000D03*
D14*
X205740000Y-64135000D03*
D15*
X202190000Y-64135000D03*
X215640000Y-61595000D03*
D14*
X212090000Y-61595000D03*
%TD*%
D16*
%TO.C,SW25*%
X195580000Y-66675000D03*
D17*
X190500000Y-66675000D03*
D16*
X185420000Y-66675000D03*
D14*
X186690000Y-64135000D03*
D15*
X183140000Y-64135000D03*
X196590000Y-61595000D03*
D14*
X193040000Y-61595000D03*
%TD*%
D16*
%TO.C,SW24*%
X176530000Y-66675000D03*
D17*
X171450000Y-66675000D03*
D16*
X166370000Y-66675000D03*
D14*
X167640000Y-64135000D03*
D15*
X164090000Y-64135000D03*
X177540000Y-61595000D03*
D14*
X173990000Y-61595000D03*
%TD*%
D16*
%TO.C,SW23*%
X157480000Y-66675000D03*
D17*
X152400000Y-66675000D03*
D16*
X147320000Y-66675000D03*
D14*
X148590000Y-64135000D03*
D15*
X145040000Y-64135000D03*
X158490000Y-61595000D03*
D14*
X154940000Y-61595000D03*
%TD*%
D16*
%TO.C,SW22*%
X138430000Y-66675000D03*
D17*
X133350000Y-66675000D03*
D16*
X128270000Y-66675000D03*
D14*
X129540000Y-64135000D03*
D15*
X125990000Y-64135000D03*
X139440000Y-61595000D03*
D14*
X135890000Y-61595000D03*
%TD*%
D16*
%TO.C,SW21*%
X119380000Y-66675000D03*
D17*
X114300000Y-66675000D03*
D16*
X109220000Y-66675000D03*
D14*
X110490000Y-64135000D03*
D15*
X106940000Y-64135000D03*
X120390000Y-61595000D03*
D14*
X116840000Y-61595000D03*
%TD*%
D16*
%TO.C,SW20*%
X100330000Y-66675000D03*
D17*
X95250000Y-66675000D03*
D16*
X90170000Y-66675000D03*
D14*
X91440000Y-64135000D03*
D15*
X87890000Y-64135000D03*
X101340000Y-61595000D03*
D14*
X97790000Y-61595000D03*
%TD*%
D16*
%TO.C,SW19*%
X81280000Y-66675000D03*
D17*
X76200000Y-66675000D03*
D16*
X71120000Y-66675000D03*
D14*
X72390000Y-64135000D03*
D15*
X68840000Y-64135000D03*
X82290000Y-61595000D03*
D14*
X78740000Y-61595000D03*
%TD*%
D16*
%TO.C,SW18*%
X62230000Y-66675000D03*
D17*
X57150000Y-66675000D03*
D16*
X52070000Y-66675000D03*
D14*
X53340000Y-64135000D03*
D15*
X49790000Y-64135000D03*
X63240000Y-61595000D03*
D14*
X59690000Y-61595000D03*
%TD*%
D16*
%TO.C,SW17*%
X43180000Y-66675000D03*
D17*
X38100000Y-66675000D03*
D16*
X33020000Y-66675000D03*
D14*
X34290000Y-64135000D03*
D15*
X30740000Y-64135000D03*
X44190000Y-61595000D03*
D14*
X40640000Y-61595000D03*
%TD*%
D16*
%TO.C,SW16*%
X371792500Y-38100000D03*
D17*
X366712500Y-38100000D03*
D16*
X361632500Y-38100000D03*
D14*
X362902500Y-35560000D03*
D15*
X359352500Y-35560000D03*
X372802500Y-33020000D03*
D14*
X369252500Y-33020000D03*
%TD*%
D16*
%TO.C,SW15*%
X352742500Y-38100000D03*
D17*
X347662500Y-38100000D03*
D16*
X342582500Y-38100000D03*
D14*
X343852500Y-35560000D03*
D15*
X340302500Y-35560000D03*
X353752500Y-33020000D03*
D14*
X350202500Y-33020000D03*
%TD*%
D16*
%TO.C,SW14*%
X333692500Y-38100000D03*
D17*
X328612500Y-38100000D03*
D16*
X323532500Y-38100000D03*
D14*
X324802500Y-35560000D03*
D15*
X321252500Y-35560000D03*
X334702500Y-33020000D03*
D14*
X331152500Y-33020000D03*
%TD*%
D16*
%TO.C,SW13*%
X309880000Y-38100000D03*
D17*
X304800000Y-38100000D03*
D16*
X299720000Y-38100000D03*
D14*
X300990000Y-35560000D03*
D15*
X297440000Y-35560000D03*
X310890000Y-33020000D03*
D14*
X307340000Y-33020000D03*
%TD*%
D16*
%TO.C,SW12*%
X290830000Y-38100000D03*
D17*
X285750000Y-38100000D03*
D16*
X280670000Y-38100000D03*
D14*
X281940000Y-35560000D03*
D15*
X278390000Y-35560000D03*
X291840000Y-33020000D03*
D14*
X288290000Y-33020000D03*
%TD*%
D16*
%TO.C,SW10*%
X252730000Y-38100000D03*
D17*
X247650000Y-38100000D03*
D16*
X242570000Y-38100000D03*
D14*
X243840000Y-35560000D03*
D15*
X240290000Y-35560000D03*
X253740000Y-33020000D03*
D14*
X250190000Y-33020000D03*
%TD*%
D16*
%TO.C,SW9*%
X224155000Y-38100000D03*
D17*
X219075000Y-38100000D03*
D16*
X213995000Y-38100000D03*
D14*
X215265000Y-35560000D03*
D15*
X211715000Y-35560000D03*
X225165000Y-33020000D03*
D14*
X221615000Y-33020000D03*
%TD*%
D16*
%TO.C,SW8*%
X205105000Y-38100000D03*
D17*
X200025000Y-38100000D03*
D16*
X194945000Y-38100000D03*
D14*
X196215000Y-35560000D03*
D15*
X192665000Y-35560000D03*
X206115000Y-33020000D03*
D14*
X202565000Y-33020000D03*
%TD*%
D16*
%TO.C,SW7*%
X186055000Y-38100000D03*
D17*
X180975000Y-38100000D03*
D16*
X175895000Y-38100000D03*
D14*
X177165000Y-35560000D03*
D15*
X173615000Y-35560000D03*
X187065000Y-33020000D03*
D14*
X183515000Y-33020000D03*
%TD*%
D16*
%TO.C,SW6*%
X167005000Y-38100000D03*
D17*
X161925000Y-38100000D03*
D16*
X156845000Y-38100000D03*
D14*
X158115000Y-35560000D03*
D15*
X154565000Y-35560000D03*
X168015000Y-33020000D03*
D14*
X164465000Y-33020000D03*
%TD*%
D16*
%TO.C,SW5*%
X138430000Y-38100000D03*
D17*
X133350000Y-38100000D03*
D16*
X128270000Y-38100000D03*
D14*
X129540000Y-35560000D03*
D15*
X125990000Y-35560000D03*
X139440000Y-33020000D03*
D14*
X135890000Y-33020000D03*
%TD*%
D16*
%TO.C,SW4*%
X119380000Y-38100000D03*
D17*
X114300000Y-38100000D03*
D16*
X109220000Y-38100000D03*
D14*
X110490000Y-35560000D03*
D15*
X106940000Y-35560000D03*
X120390000Y-33020000D03*
D14*
X116840000Y-33020000D03*
%TD*%
D16*
%TO.C,SW3*%
X100330000Y-38100000D03*
D17*
X95250000Y-38100000D03*
D16*
X90170000Y-38100000D03*
D14*
X91440000Y-35560000D03*
D15*
X87890000Y-35560000D03*
X101340000Y-33020000D03*
D14*
X97790000Y-33020000D03*
%TD*%
D16*
%TO.C,SW2*%
X81280000Y-38100000D03*
D17*
X76200000Y-38100000D03*
D16*
X71120000Y-38100000D03*
D14*
X72390000Y-35560000D03*
D15*
X68840000Y-35560000D03*
X82290000Y-33020000D03*
D14*
X78740000Y-33020000D03*
%TD*%
D16*
%TO.C,SW1*%
X43180000Y-38100000D03*
D17*
X38100000Y-38100000D03*
D16*
X33020000Y-38100000D03*
D14*
X34290000Y-35560000D03*
D15*
X30740000Y-35560000D03*
X44190000Y-33020000D03*
D14*
X40640000Y-33020000D03*
%TD*%
D19*
%TO.C,S6*%
X440690000Y-145256250D03*
D17*
X455930000Y-145256250D03*
D19*
X440690000Y-121443750D03*
D17*
X455930000Y-121443750D03*
%TD*%
D19*
%TO.C,S5*%
X276225000Y-116840000D03*
D17*
X276225000Y-132080000D03*
D19*
X300037500Y-116840000D03*
D17*
X300037500Y-132080000D03*
%TD*%
D19*
%TO.C,S3*%
X440690000Y-107156250D03*
D17*
X455930000Y-107156250D03*
D19*
X440690000Y-83343750D03*
D17*
X455930000Y-83343750D03*
%TD*%
D19*
%TO.C,S2*%
X295433750Y-83343750D03*
X295433750Y-107156250D03*
D17*
X310673750Y-83343750D03*
X310673750Y-107156250D03*
%TD*%
D19*
%TO.C,S1*%
X109537500Y-135890000D03*
D17*
X109537500Y-151130000D03*
D19*
X209550000Y-135890000D03*
D17*
X209550000Y-151130000D03*
%TD*%
D21*
%TO.C,C1*%
X32250000Y-41057499D03*
X32250000Y-44182499D03*
%TD*%
%TO.C,C2*%
X70350000Y-41057499D03*
X70350000Y-44182499D03*
%TD*%
%TO.C,C3*%
X89400000Y-41057499D03*
X89400000Y-44182499D03*
%TD*%
%TO.C,C4*%
X108450000Y-41057499D03*
X108450000Y-44182499D03*
%TD*%
%TO.C,C5*%
X127500000Y-41057499D03*
X127500000Y-44182499D03*
%TD*%
%TO.C,C6*%
X156075000Y-41057499D03*
X156075000Y-44182499D03*
%TD*%
%TO.C,C7*%
X175125000Y-41057499D03*
X175125000Y-44182499D03*
%TD*%
%TO.C,C8*%
X194175000Y-41057499D03*
X194175000Y-44182499D03*
%TD*%
%TO.C,C9*%
X213225000Y-41057499D03*
X213225000Y-44182499D03*
%TD*%
%TO.C,C10*%
X241800000Y-41057499D03*
X241800000Y-44182499D03*
%TD*%
%TO.C,C11*%
X260850000Y-41057499D03*
X260850000Y-44182499D03*
%TD*%
%TO.C,C12*%
X279900000Y-41057499D03*
X279900000Y-44182499D03*
%TD*%
%TO.C,C13*%
X298950000Y-41057499D03*
X298950000Y-44182499D03*
%TD*%
%TO.C,C14*%
X322762500Y-41057499D03*
X322762500Y-44182499D03*
%TD*%
%TO.C,C15*%
X341812500Y-41057499D03*
X341812500Y-44182499D03*
%TD*%
%TO.C,C16*%
X360862500Y-41057499D03*
X360862500Y-44182499D03*
%TD*%
%TO.C,C17*%
X32250000Y-69632499D03*
X32250000Y-72757499D03*
%TD*%
%TO.C,C18*%
X51300000Y-69632499D03*
X51300000Y-72757499D03*
%TD*%
%TO.C,C19*%
X70350000Y-69632499D03*
X70350000Y-72757499D03*
%TD*%
%TO.C,C20*%
X89400000Y-69632499D03*
X89400000Y-72757499D03*
%TD*%
%TO.C,C21*%
X108450000Y-69632499D03*
X108450000Y-72757499D03*
%TD*%
%TO.C,C22*%
X127500000Y-69632499D03*
X127500000Y-72757499D03*
%TD*%
%TO.C,C23*%
X146550000Y-69632499D03*
X146550000Y-72757499D03*
%TD*%
%TO.C,C24*%
X165600000Y-69632499D03*
X165600000Y-72757499D03*
%TD*%
%TO.C,C25*%
X184650000Y-69632499D03*
X184650000Y-72757499D03*
%TD*%
%TO.C,C26*%
X203700000Y-69632499D03*
X203700000Y-72757499D03*
%TD*%
%TO.C,C27*%
X222750000Y-69632499D03*
X222750000Y-72757499D03*
%TD*%
%TO.C,C28*%
X241800000Y-69632499D03*
X241800000Y-72757499D03*
%TD*%
%TO.C,C29*%
X260850000Y-69632499D03*
X260850000Y-72757499D03*
%TD*%
%TO.C,C30*%
X289425000Y-69632499D03*
X289425000Y-72757499D03*
%TD*%
%TO.C,C31*%
X322762500Y-69632499D03*
X322762500Y-72757499D03*
%TD*%
%TO.C,C32*%
X341812500Y-69632499D03*
X341812500Y-72757499D03*
%TD*%
%TO.C,C33*%
X360862500Y-69632499D03*
X360862500Y-72757499D03*
%TD*%
%TO.C,C34*%
X384675000Y-69632499D03*
X384675000Y-72757499D03*
%TD*%
%TO.C,C35*%
X403725000Y-69632499D03*
X403725000Y-72757499D03*
%TD*%
%TO.C,C36*%
X422775000Y-69632499D03*
X422775000Y-72757499D03*
%TD*%
%TO.C,C37*%
X441825000Y-69632499D03*
X441825000Y-72757499D03*
%TD*%
%TO.C,C38*%
X37012500Y-88682499D03*
X37012500Y-91807499D03*
%TD*%
%TO.C,C39*%
X60825000Y-88682499D03*
X60825000Y-91807499D03*
%TD*%
%TO.C,C40*%
X79875000Y-88682499D03*
X79875000Y-91807499D03*
%TD*%
%TO.C,C41*%
X98925000Y-88682499D03*
X98925000Y-91807499D03*
%TD*%
%TO.C,C42*%
X117975000Y-88682499D03*
X117975000Y-91807499D03*
%TD*%
%TO.C,C43*%
X137025000Y-88682499D03*
X137025000Y-91807499D03*
%TD*%
%TO.C,C44*%
X156075000Y-88682499D03*
X156075000Y-91807499D03*
%TD*%
%TO.C,C45*%
X175125000Y-88682499D03*
X175125000Y-91807499D03*
%TD*%
%TO.C,C46*%
X194175000Y-88682499D03*
X194175000Y-91807499D03*
%TD*%
%TO.C,C47*%
X213225000Y-88682499D03*
X213225000Y-91807499D03*
%TD*%
%TO.C,C48*%
X232275000Y-88682499D03*
X232275000Y-91807499D03*
%TD*%
%TO.C,C49*%
X251325000Y-88682499D03*
X251325000Y-91807499D03*
%TD*%
%TO.C,C50*%
X270375000Y-88682499D03*
X270375000Y-91807499D03*
%TD*%
%TO.C,C51*%
X296568750Y-98207499D03*
X296568750Y-101332499D03*
%TD*%
%TO.C,C52*%
X322762500Y-88682499D03*
X322762500Y-91807499D03*
%TD*%
%TO.C,C53*%
X341812500Y-88682499D03*
X341812500Y-91807499D03*
%TD*%
%TO.C,C54*%
X360862500Y-88682499D03*
X360862500Y-91807499D03*
%TD*%
%TO.C,C55*%
X384675000Y-88682499D03*
X384675000Y-91807499D03*
%TD*%
%TO.C,C56*%
X403725000Y-88682499D03*
X403725000Y-91807499D03*
%TD*%
%TO.C,C57*%
X422775000Y-88682499D03*
X422775000Y-91807499D03*
%TD*%
%TO.C,C58*%
X441825000Y-98207499D03*
X441825000Y-101332499D03*
%TD*%
%TO.C,C59*%
X39393750Y-107732499D03*
X39393750Y-110857499D03*
%TD*%
%TO.C,C60*%
X65587500Y-107732499D03*
X65587500Y-110857499D03*
%TD*%
%TO.C,C61*%
X84637500Y-107732499D03*
X84637500Y-110857499D03*
%TD*%
%TO.C,C62*%
X103687500Y-107732499D03*
X103687500Y-110857499D03*
%TD*%
%TO.C,C63*%
X122737500Y-107732499D03*
X122737500Y-110857499D03*
%TD*%
%TO.C,C64*%
X141787500Y-107732499D03*
X141787500Y-110857499D03*
%TD*%
%TO.C,C65*%
X160837500Y-107732499D03*
X160837500Y-110857499D03*
%TD*%
%TO.C,C66*%
X179887500Y-107732499D03*
X179887500Y-110857499D03*
%TD*%
%TO.C,C67*%
X198937500Y-107732499D03*
X198937500Y-110857499D03*
%TD*%
%TO.C,C68*%
X217987500Y-107732499D03*
X217987500Y-110857499D03*
%TD*%
%TO.C,C69*%
X237037500Y-107732499D03*
X237037500Y-110857499D03*
%TD*%
%TO.C,C70*%
X256087500Y-107732499D03*
X256087500Y-110857499D03*
%TD*%
%TO.C,C71*%
X275137500Y-107732499D03*
X275137500Y-110857499D03*
%TD*%
%TO.C,C72*%
X384675000Y-107732499D03*
X384675000Y-110857499D03*
%TD*%
%TO.C,C73*%
X403725000Y-107732499D03*
X403725000Y-110857499D03*
%TD*%
%TO.C,C74*%
X422775000Y-107732499D03*
X422775000Y-110857499D03*
%TD*%
%TO.C,C75*%
X34631250Y-126782499D03*
X34631250Y-129907499D03*
%TD*%
%TO.C,C76*%
X56062500Y-126782499D03*
X56062500Y-129907499D03*
%TD*%
%TO.C,C77*%
X75112500Y-126782499D03*
X75112500Y-129907499D03*
%TD*%
%TO.C,C78*%
X94162500Y-126782499D03*
X94162500Y-129907499D03*
%TD*%
%TO.C,C79*%
X113212500Y-126782499D03*
X113212500Y-129907499D03*
%TD*%
%TO.C,C80*%
X132262500Y-126782499D03*
X132262500Y-129907499D03*
%TD*%
%TO.C,C81*%
X151312500Y-126782499D03*
X151312500Y-129907499D03*
%TD*%
%TO.C,C82*%
X170362500Y-126782499D03*
X170362500Y-129907499D03*
%TD*%
%TO.C,C83*%
X189412500Y-126782499D03*
X189412500Y-129907499D03*
%TD*%
%TO.C,C84*%
X208462500Y-126782499D03*
X208462500Y-129907499D03*
%TD*%
%TO.C,C85*%
X227512500Y-126782499D03*
X227512500Y-129907499D03*
%TD*%
%TO.C,C86*%
X246562500Y-126782499D03*
X246562500Y-129907499D03*
%TD*%
%TO.C,C87*%
X282281250Y-126782499D03*
X282281250Y-129907499D03*
%TD*%
%TO.C,C88*%
X341812500Y-126782499D03*
X341812500Y-129907499D03*
%TD*%
%TO.C,C89*%
X384675000Y-126782499D03*
X384675000Y-129907499D03*
%TD*%
%TO.C,C90*%
X403725000Y-126782499D03*
X403725000Y-129907499D03*
%TD*%
%TO.C,C91*%
X422775000Y-126782499D03*
X422775000Y-129907499D03*
%TD*%
%TO.C,C92*%
X441825000Y-136307499D03*
X441825000Y-139432499D03*
%TD*%
%TO.C,C93*%
X34631250Y-145832499D03*
X34631250Y-148957499D03*
%TD*%
%TO.C,C94*%
X58443750Y-145832499D03*
X58443750Y-148957499D03*
%TD*%
%TO.C,C95*%
X82256250Y-145832499D03*
X82256250Y-148957499D03*
%TD*%
%TO.C,C96*%
X153693750Y-145832499D03*
X153693750Y-148957499D03*
%TD*%
%TO.C,C97*%
X225131250Y-145832499D03*
X225131250Y-148957499D03*
%TD*%
%TO.C,C98*%
X248943750Y-145832499D03*
X248943750Y-148957499D03*
%TD*%
%TO.C,C99*%
X272756250Y-145832499D03*
X272756250Y-148957499D03*
%TD*%
%TO.C,C100*%
X296568750Y-145832499D03*
X296568750Y-148957499D03*
%TD*%
%TO.C,C101*%
X322762500Y-145832499D03*
X322762500Y-148957499D03*
%TD*%
%TO.C,C102*%
X341812500Y-145832499D03*
X341812500Y-148957499D03*
%TD*%
%TO.C,C103*%
X360862500Y-145832499D03*
X360862500Y-148957499D03*
%TD*%
%TO.C,C104*%
X394200000Y-145832499D03*
X394200000Y-148957499D03*
%TD*%
%TO.C,C105*%
X422775000Y-145832499D03*
X422775000Y-148957499D03*
%TD*%
D22*
%TO.C,U1*%
X385275000Y-41910000D03*
D23*
X385275000Y-39370000D03*
X385275000Y-36830000D03*
X385275000Y-34290000D03*
%TD*%
D18*
%TO.C,LED4*%
X117025000Y-42430000D03*
X117025000Y-43930000D03*
X111575000Y-43930000D03*
X111575000Y-42430000D03*
%TD*%
%TO.C,LED1*%
X40825000Y-42430000D03*
X40825000Y-43930000D03*
X35375000Y-43930000D03*
X35375000Y-42430000D03*
%TD*%
%TO.C,LED11*%
X269425000Y-42430000D03*
X269425000Y-43930000D03*
X263975000Y-43930000D03*
X263975000Y-42430000D03*
%TD*%
%TO.C,LED6*%
X164650000Y-42430000D03*
X164650000Y-43930000D03*
X159200000Y-43930000D03*
X159200000Y-42430000D03*
%TD*%
%TO.C,LED2*%
X78925000Y-42430000D03*
X78925000Y-43930000D03*
X73475000Y-43930000D03*
X73475000Y-42430000D03*
%TD*%
%TO.C,LED5*%
X136075000Y-42430000D03*
X136075000Y-43930000D03*
X130625000Y-43930000D03*
X130625000Y-42430000D03*
%TD*%
%TO.C,LED8*%
X202750000Y-42430000D03*
X202750000Y-43930000D03*
X197300000Y-43930000D03*
X197300000Y-42430000D03*
%TD*%
%TO.C,LED7*%
X183700000Y-42430000D03*
X183700000Y-43930000D03*
X178250000Y-43930000D03*
X178250000Y-42430000D03*
%TD*%
%TO.C,LED3*%
X97975000Y-42430000D03*
X97975000Y-43930000D03*
X92525000Y-43930000D03*
X92525000Y-42430000D03*
%TD*%
%TO.C,LED9*%
X221800000Y-42430000D03*
X221800000Y-43930000D03*
X216350000Y-43930000D03*
X216350000Y-42430000D03*
%TD*%
%TO.C,LED10*%
X250375000Y-42430000D03*
X250375000Y-43930000D03*
X244925000Y-43930000D03*
X244925000Y-42430000D03*
%TD*%
%TO.C,LED12*%
X288475000Y-42430000D03*
X288475000Y-43930000D03*
X283025000Y-43930000D03*
X283025000Y-42430000D03*
%TD*%
%TO.C,LED20*%
X97975000Y-71005000D03*
X97975000Y-72505000D03*
X92525000Y-72505000D03*
X92525000Y-71005000D03*
%TD*%
%TO.C,LED24*%
X174175000Y-71005000D03*
X174175000Y-72505000D03*
X168725000Y-72505000D03*
X168725000Y-71005000D03*
%TD*%
%TO.C,LED13*%
X307525000Y-42430000D03*
X307525000Y-43930000D03*
X302075000Y-43930000D03*
X302075000Y-42430000D03*
%TD*%
%TO.C,LED14*%
X325887500Y-42430000D03*
X325887500Y-43930000D03*
X331337500Y-43930000D03*
X331337500Y-42430000D03*
%TD*%
%TO.C,LED15*%
X344937500Y-42430000D03*
X344937500Y-43930000D03*
X350387500Y-43930000D03*
X350387500Y-42430000D03*
%TD*%
%TO.C,LED16*%
X369437500Y-42430000D03*
X369437500Y-43930000D03*
X363987500Y-43930000D03*
X363987500Y-42430000D03*
%TD*%
%TO.C,LED18*%
X59875000Y-71005000D03*
X59875000Y-72505000D03*
X54425000Y-72505000D03*
X54425000Y-71005000D03*
%TD*%
%TO.C,LED19*%
X78925000Y-71005000D03*
X78925000Y-72505000D03*
X73475000Y-72505000D03*
X73475000Y-71005000D03*
%TD*%
%TO.C,LED21*%
X117025000Y-71005000D03*
X117025000Y-72505000D03*
X111575000Y-72505000D03*
X111575000Y-71005000D03*
%TD*%
%TO.C,LED23*%
X155125000Y-71005000D03*
X155125000Y-72505000D03*
X149675000Y-72505000D03*
X149675000Y-71005000D03*
%TD*%
%TO.C,LED17*%
X40825000Y-71005000D03*
X40825000Y-72505000D03*
X35375000Y-72505000D03*
X35375000Y-71005000D03*
%TD*%
%TO.C,LED22*%
X136075000Y-71005000D03*
X136075000Y-72505000D03*
X130625000Y-72505000D03*
X130625000Y-71005000D03*
%TD*%
%TO.C,LED31*%
X331337500Y-71005000D03*
X331337500Y-72505000D03*
X325887500Y-72505000D03*
X325887500Y-71005000D03*
%TD*%
%TO.C,LED29*%
X269425000Y-71005000D03*
X269425000Y-72505000D03*
X263975000Y-72505000D03*
X263975000Y-71005000D03*
%TD*%
%TO.C,LED35*%
X412300000Y-71005000D03*
X412300000Y-72505000D03*
X406850000Y-72505000D03*
X406850000Y-71005000D03*
%TD*%
%TO.C,LED37*%
X450400000Y-71005000D03*
X450400000Y-72505000D03*
X444950000Y-72505000D03*
X444950000Y-71005000D03*
%TD*%
%TO.C,LED39*%
X69400000Y-90055000D03*
X69400000Y-91555000D03*
X63950000Y-91555000D03*
X63950000Y-90055000D03*
%TD*%
%TO.C,LED32*%
X350387500Y-71005000D03*
X350387500Y-72505000D03*
X344937500Y-72505000D03*
X344937500Y-71005000D03*
%TD*%
%TO.C,LED26*%
X212275000Y-71005000D03*
X212275000Y-72505000D03*
X206825000Y-72505000D03*
X206825000Y-71005000D03*
%TD*%
%TO.C,LED27*%
X231325000Y-71005000D03*
X231325000Y-72505000D03*
X225875000Y-72505000D03*
X225875000Y-71005000D03*
%TD*%
%TO.C,LED25*%
X193225000Y-71005000D03*
X193225000Y-72505000D03*
X187775000Y-72505000D03*
X187775000Y-71005000D03*
%TD*%
%TO.C,LED28*%
X250375000Y-71005000D03*
X250375000Y-72505000D03*
X244925000Y-72505000D03*
X244925000Y-71005000D03*
%TD*%
%TO.C,LED30*%
X298000000Y-71005000D03*
X298000000Y-72505000D03*
X292550000Y-72505000D03*
X292550000Y-71005000D03*
%TD*%
%TO.C,LED33*%
X369437500Y-71005000D03*
X369437500Y-72505000D03*
X363987500Y-72505000D03*
X363987500Y-71005000D03*
%TD*%
%TO.C,LED34*%
X393250000Y-71005000D03*
X393250000Y-72505000D03*
X387800000Y-72505000D03*
X387800000Y-71005000D03*
%TD*%
%TO.C,LED36*%
X431350000Y-71005000D03*
X431350000Y-72505000D03*
X425900000Y-72505000D03*
X425900000Y-71005000D03*
%TD*%
%TO.C,LED38*%
X45587500Y-90055000D03*
X45587500Y-91555000D03*
X40137500Y-91555000D03*
X40137500Y-90055000D03*
%TD*%
%TO.C,LED42*%
X126550000Y-90055000D03*
X126550000Y-91555000D03*
X121100000Y-91555000D03*
X121100000Y-90055000D03*
%TD*%
%TO.C,LED41*%
X107500000Y-90055000D03*
X107500000Y-91555000D03*
X102050000Y-91555000D03*
X102050000Y-90055000D03*
%TD*%
%TO.C,LED43*%
X145600000Y-90055000D03*
X145600000Y-91555000D03*
X140150000Y-91555000D03*
X140150000Y-90055000D03*
%TD*%
%TO.C,LED44*%
X164650000Y-90055000D03*
X164650000Y-91555000D03*
X159200000Y-91555000D03*
X159200000Y-90055000D03*
%TD*%
%TO.C,LED45*%
X183700000Y-90055000D03*
X183700000Y-91555000D03*
X178250000Y-91555000D03*
X178250000Y-90055000D03*
%TD*%
%TO.C,LED46*%
X202750000Y-90055000D03*
X202750000Y-91555000D03*
X197300000Y-91555000D03*
X197300000Y-90055000D03*
%TD*%
%TO.C,LED55*%
X393250000Y-90055000D03*
X393250000Y-91555000D03*
X387800000Y-91555000D03*
X387800000Y-90055000D03*
%TD*%
%TO.C,LED57*%
X431350000Y-90055000D03*
X431350000Y-91555000D03*
X425900000Y-91555000D03*
X425900000Y-90055000D03*
%TD*%
%TO.C,LED47*%
X221800000Y-90055000D03*
X221800000Y-91555000D03*
X216350000Y-91555000D03*
X216350000Y-90055000D03*
%TD*%
%TO.C,LED60*%
X74162500Y-109105000D03*
X74162500Y-110605000D03*
X68712500Y-110605000D03*
X68712500Y-109105000D03*
%TD*%
%TO.C,LED50*%
X278950000Y-90055000D03*
X278950000Y-91555000D03*
X273500000Y-91555000D03*
X273500000Y-90055000D03*
%TD*%
%TO.C,LED49*%
X259900000Y-90055000D03*
X259900000Y-91555000D03*
X254450000Y-91555000D03*
X254450000Y-90055000D03*
%TD*%
%TO.C,LED51*%
X305143750Y-99580000D03*
X305143750Y-101080000D03*
X299693750Y-101080000D03*
X299693750Y-99580000D03*
%TD*%
%TO.C,LED52*%
X331337500Y-90055000D03*
X331337500Y-91555000D03*
X325887500Y-91555000D03*
X325887500Y-90055000D03*
%TD*%
%TO.C,LED48*%
X240850000Y-90055000D03*
X240850000Y-91555000D03*
X235400000Y-91555000D03*
X235400000Y-90055000D03*
%TD*%
%TO.C,LED53*%
X350387500Y-90055000D03*
X350387500Y-91555000D03*
X344937500Y-91555000D03*
X344937500Y-90055000D03*
%TD*%
%TO.C,LED54*%
X369437500Y-90055000D03*
X369437500Y-91555000D03*
X363987500Y-91555000D03*
X363987500Y-90055000D03*
%TD*%
%TO.C,LED56*%
X412300000Y-90055000D03*
X412300000Y-91555000D03*
X406850000Y-91555000D03*
X406850000Y-90055000D03*
%TD*%
%TO.C,LED58*%
X444950000Y-99580000D03*
X444950000Y-101080000D03*
X450400000Y-101080000D03*
X450400000Y-99580000D03*
%TD*%
%TO.C,LED59*%
X47968750Y-109105000D03*
X47968750Y-110605000D03*
X42518750Y-110605000D03*
X42518750Y-109105000D03*
%TD*%
%TO.C,LED66*%
X188462500Y-109105000D03*
X188462500Y-110605000D03*
X183012500Y-110605000D03*
X183012500Y-109105000D03*
%TD*%
%TO.C,LED67*%
X207512500Y-109105000D03*
X207512500Y-110605000D03*
X202062500Y-110605000D03*
X202062500Y-109105000D03*
%TD*%
%TO.C,LED64*%
X150362500Y-109105000D03*
X150362500Y-110605000D03*
X144912500Y-110605000D03*
X144912500Y-109105000D03*
%TD*%
%TO.C,LED65*%
X169412500Y-109105000D03*
X169412500Y-110605000D03*
X163962500Y-110605000D03*
X163962500Y-109105000D03*
%TD*%
%TO.C,LED63*%
X131312500Y-109105000D03*
X131312500Y-110605000D03*
X125862500Y-110605000D03*
X125862500Y-109105000D03*
%TD*%
%TO.C,LED69*%
X245612500Y-109105000D03*
X245612500Y-110605000D03*
X240162500Y-110605000D03*
X240162500Y-109105000D03*
%TD*%
%TO.C,LED68*%
X226562500Y-109105000D03*
X226562500Y-110605000D03*
X221112500Y-110605000D03*
X221112500Y-109105000D03*
%TD*%
%TO.C,LED77*%
X83687500Y-128155000D03*
X83687500Y-129655000D03*
X78237500Y-129655000D03*
X78237500Y-128155000D03*
%TD*%
%TO.C,LED70*%
X264662500Y-109105000D03*
X264662500Y-110605000D03*
X259212500Y-110605000D03*
X259212500Y-109105000D03*
%TD*%
%TO.C,LED61*%
X93212500Y-109105000D03*
X93212500Y-110605000D03*
X87762500Y-110605000D03*
X87762500Y-109105000D03*
%TD*%
%TO.C,LED62*%
X112262500Y-109105000D03*
X112262500Y-110605000D03*
X106812500Y-110605000D03*
X106812500Y-109105000D03*
%TD*%
%TO.C,LED73*%
X412300000Y-109105000D03*
X412300000Y-110605000D03*
X406850000Y-110605000D03*
X406850000Y-109105000D03*
%TD*%
%TO.C,LED80*%
X140837500Y-128155000D03*
X140837500Y-129655000D03*
X135387500Y-129655000D03*
X135387500Y-128155000D03*
%TD*%
%TO.C,LED72*%
X393250000Y-109105000D03*
X393250000Y-110605000D03*
X387800000Y-110605000D03*
X387800000Y-109105000D03*
%TD*%
%TO.C,LED74*%
X431350000Y-109105000D03*
X431350000Y-110605000D03*
X425900000Y-110605000D03*
X425900000Y-109105000D03*
%TD*%
%TO.C,LED71*%
X283712500Y-109105000D03*
X283712500Y-110605000D03*
X278262500Y-110605000D03*
X278262500Y-109105000D03*
%TD*%
%TO.C,LED75*%
X43206250Y-128155000D03*
X43206250Y-129655000D03*
X37756250Y-129655000D03*
X37756250Y-128155000D03*
%TD*%
%TO.C,LED76*%
X64637500Y-128155000D03*
X64637500Y-129655000D03*
X59187500Y-129655000D03*
X59187500Y-128155000D03*
%TD*%
%TO.C,LED89*%
X393250000Y-128155000D03*
X393250000Y-129655000D03*
X387800000Y-129655000D03*
X387800000Y-128155000D03*
%TD*%
%TO.C,LED87*%
X290856250Y-128155000D03*
X290856250Y-129655000D03*
X285406250Y-129655000D03*
X285406250Y-128155000D03*
%TD*%
%TO.C,LED82*%
X178937500Y-128155000D03*
X178937500Y-129655000D03*
X173487500Y-129655000D03*
X173487500Y-128155000D03*
%TD*%
%TO.C,LED79*%
X121787500Y-128155000D03*
X121787500Y-129655000D03*
X116337500Y-129655000D03*
X116337500Y-128155000D03*
%TD*%
%TO.C,LED78*%
X102737500Y-128155000D03*
X102737500Y-129655000D03*
X97287500Y-129655000D03*
X97287500Y-128155000D03*
%TD*%
%TO.C,LED83*%
X197987500Y-128155000D03*
X197987500Y-129655000D03*
X192537500Y-129655000D03*
X192537500Y-128155000D03*
%TD*%
%TO.C,LED84*%
X217037500Y-128155000D03*
X217037500Y-129655000D03*
X211587500Y-129655000D03*
X211587500Y-128155000D03*
%TD*%
%TO.C,LED86*%
X255137500Y-128155000D03*
X255137500Y-129655000D03*
X249687500Y-129655000D03*
X249687500Y-128155000D03*
%TD*%
%TO.C,LED88*%
X350387500Y-128155000D03*
X350387500Y-129655000D03*
X344937500Y-129655000D03*
X344937500Y-128155000D03*
%TD*%
%TO.C,LED85*%
X236087500Y-128155000D03*
X236087500Y-129655000D03*
X230637500Y-129655000D03*
X230637500Y-128155000D03*
%TD*%
%TO.C,LED81*%
X159887500Y-128155000D03*
X159887500Y-129655000D03*
X154437500Y-129655000D03*
X154437500Y-128155000D03*
%TD*%
%TO.C,LED93*%
X43206250Y-147205000D03*
X43206250Y-148705000D03*
X37756250Y-148705000D03*
X37756250Y-147205000D03*
%TD*%
%TO.C,LED96*%
X162268750Y-147205000D03*
X162268750Y-148705000D03*
X156818750Y-148705000D03*
X156818750Y-147205000D03*
%TD*%
%TO.C,LED91*%
X431350000Y-128155000D03*
X431350000Y-129655000D03*
X425900000Y-129655000D03*
X425900000Y-128155000D03*
%TD*%
%TO.C,LED99*%
X281331250Y-147205000D03*
X281331250Y-148705000D03*
X275881250Y-148705000D03*
X275881250Y-147205000D03*
%TD*%
%TO.C,LED94*%
X67018750Y-147205000D03*
X67018750Y-148705000D03*
X61568750Y-148705000D03*
X61568750Y-147205000D03*
%TD*%
%TO.C,LED92*%
X450400000Y-137680000D03*
X450400000Y-139180000D03*
X444950000Y-139180000D03*
X444950000Y-137680000D03*
%TD*%
D11*
%TO.C,R1*%
X470320000Y-102410000D03*
X462700000Y-102410000D03*
%TD*%
D18*
%TO.C,LED95*%
X90831250Y-147205000D03*
X90831250Y-148705000D03*
X85381250Y-148705000D03*
X85381250Y-147205000D03*
%TD*%
%TO.C,LED90*%
X412300000Y-128155000D03*
X412300000Y-129655000D03*
X406850000Y-129655000D03*
X406850000Y-128155000D03*
%TD*%
%TO.C,LED102*%
X350387500Y-147205000D03*
X350387500Y-148705000D03*
X344937500Y-148705000D03*
X344937500Y-147205000D03*
%TD*%
%TO.C,LED103*%
X369437500Y-147205000D03*
X369437500Y-148705000D03*
X363987500Y-148705000D03*
X363987500Y-147205000D03*
%TD*%
%TO.C,LED98*%
X257518750Y-147205000D03*
X257518750Y-148705000D03*
X252068750Y-148705000D03*
X252068750Y-147205000D03*
%TD*%
%TO.C,LED97*%
X233706250Y-147205000D03*
X233706250Y-148705000D03*
X228256250Y-148705000D03*
X228256250Y-147205000D03*
%TD*%
%TO.C,LED100*%
X305143750Y-147205000D03*
X305143750Y-148705000D03*
X299693750Y-148705000D03*
X299693750Y-147205000D03*
%TD*%
%TO.C,LED101*%
X325887500Y-147205000D03*
X325887500Y-148705000D03*
X331337500Y-148705000D03*
X331337500Y-147205000D03*
%TD*%
%TO.C,LED104*%
X397325000Y-147205000D03*
X397325000Y-148705000D03*
X402775000Y-148705000D03*
X402775000Y-147205000D03*
%TD*%
%TO.C,LED105*%
X431350000Y-147205000D03*
X431350000Y-148705000D03*
X425900000Y-148705000D03*
X425900000Y-147205000D03*
%TD*%
D11*
%TO.C,R2*%
X482810000Y-102410000D03*
X475190000Y-102410000D03*
%TD*%
D24*
%TO.C,ROT_SW1*%
X454925000Y-40600000D03*
X454925000Y-35600000D03*
D25*
X447925000Y-43700000D03*
X447925000Y-32500000D03*
D24*
X440425000Y-38100000D03*
X440425000Y-40600000D03*
D26*
X440425000Y-35600000D03*
%TD*%
D27*
%TO.C,D105*%
X434474999Y-149075000D03*
X434474999Y-146275000D03*
%TD*%
%TO.C,D104*%
X405899999Y-149075000D03*
X405899999Y-146275000D03*
%TD*%
%TO.C,D103*%
X372562499Y-149075000D03*
X372562499Y-146275000D03*
%TD*%
%TO.C,D102*%
X353512499Y-149075000D03*
X353512499Y-146275000D03*
%TD*%
%TO.C,D101*%
X334462499Y-149075000D03*
X334462499Y-146275000D03*
%TD*%
%TO.C,D100*%
X308268749Y-149075000D03*
X308268749Y-146275000D03*
%TD*%
%TO.C,D99*%
X284456249Y-149075000D03*
X284456249Y-146275000D03*
%TD*%
%TO.C,D98*%
X260643749Y-149075000D03*
X260643749Y-146275000D03*
%TD*%
%TO.C,D97*%
X236831249Y-149075000D03*
X236831249Y-146275000D03*
%TD*%
%TO.C,D96*%
X165393749Y-149075000D03*
X165393749Y-146275000D03*
%TD*%
%TO.C,D95*%
X93956249Y-149075000D03*
X93956249Y-146275000D03*
%TD*%
%TO.C,D94*%
X70143749Y-149075000D03*
X70143749Y-146275000D03*
%TD*%
%TO.C,D93*%
X46331249Y-149075000D03*
X46331249Y-146275000D03*
%TD*%
%TO.C,D92*%
X453524999Y-139550000D03*
X453524999Y-136750000D03*
%TD*%
%TO.C,D91*%
X434474999Y-130025000D03*
X434474999Y-127225000D03*
%TD*%
%TO.C,D90*%
X415424999Y-130025000D03*
X415424999Y-127225000D03*
%TD*%
%TO.C,D89*%
X396374999Y-130025000D03*
X396374999Y-127225000D03*
%TD*%
%TO.C,D88*%
X353512499Y-130025000D03*
X353512499Y-127225000D03*
%TD*%
%TO.C,D87*%
X293981249Y-130025000D03*
X293981249Y-127225000D03*
%TD*%
%TO.C,D86*%
X258262499Y-130025000D03*
X258262499Y-127225000D03*
%TD*%
%TO.C,D85*%
X239212499Y-130025000D03*
X239212499Y-127225000D03*
%TD*%
%TO.C,D84*%
X220162499Y-130025000D03*
X220162499Y-127225000D03*
%TD*%
%TO.C,D83*%
X201112499Y-130025000D03*
X201112499Y-127225000D03*
%TD*%
%TO.C,D82*%
X182062499Y-130025000D03*
X182062499Y-127225000D03*
%TD*%
%TO.C,D81*%
X163012499Y-130025000D03*
X163012499Y-127225000D03*
%TD*%
%TO.C,D80*%
X143962499Y-130025000D03*
X143962499Y-127225000D03*
%TD*%
%TO.C,D79*%
X124912499Y-130025000D03*
X124912499Y-127225000D03*
%TD*%
%TO.C,D78*%
X105862499Y-130025000D03*
X105862499Y-127225000D03*
%TD*%
%TO.C,D77*%
X86812499Y-130025000D03*
X86812499Y-127225000D03*
%TD*%
%TO.C,D76*%
X67762499Y-130025000D03*
X67762499Y-127225000D03*
%TD*%
%TO.C,D75*%
X46331249Y-130025000D03*
X46331249Y-127225000D03*
%TD*%
%TO.C,D74*%
X434474999Y-110975000D03*
X434474999Y-108175000D03*
%TD*%
%TO.C,D73*%
X415424999Y-110975000D03*
X415424999Y-108175000D03*
%TD*%
%TO.C,D72*%
X396374999Y-108175000D03*
X396374999Y-110975000D03*
%TD*%
%TO.C,D71*%
X286837499Y-110975000D03*
X286837499Y-108175000D03*
%TD*%
%TO.C,D70*%
X267787499Y-110975000D03*
X267787499Y-108175000D03*
%TD*%
%TO.C,D69*%
X248737499Y-110975000D03*
X248737499Y-108175000D03*
%TD*%
%TO.C,D68*%
X229687499Y-110975000D03*
X229687499Y-108175000D03*
%TD*%
%TO.C,D67*%
X210637499Y-110975000D03*
X210637499Y-108175000D03*
%TD*%
%TO.C,D66*%
X191587499Y-110975000D03*
X191587499Y-108175000D03*
%TD*%
%TO.C,D65*%
X172537499Y-110975000D03*
X172537499Y-108175000D03*
%TD*%
%TO.C,D64*%
X153487499Y-110975000D03*
X153487499Y-108175000D03*
%TD*%
%TO.C,D63*%
X134437499Y-110975000D03*
X134437499Y-108175000D03*
%TD*%
%TO.C,D62*%
X115387499Y-110975000D03*
X115387499Y-108175000D03*
%TD*%
%TO.C,D61*%
X96337499Y-110975000D03*
X96337499Y-108175000D03*
%TD*%
%TO.C,D60*%
X77287499Y-110975000D03*
X77287499Y-108175000D03*
%TD*%
%TO.C,D59*%
X51093749Y-110975000D03*
X51093749Y-108175000D03*
%TD*%
%TO.C,D58*%
X453524999Y-101450000D03*
X453524999Y-98650000D03*
%TD*%
%TO.C,D57*%
X434474999Y-91925000D03*
X434474999Y-89125000D03*
%TD*%
%TO.C,D56*%
X415424999Y-91925000D03*
X415424999Y-89125000D03*
%TD*%
%TO.C,D55*%
X396374999Y-91925000D03*
X396374999Y-89125000D03*
%TD*%
%TO.C,D54*%
X372562499Y-91925000D03*
X372562499Y-89125000D03*
%TD*%
%TO.C,D53*%
X353512499Y-91925000D03*
X353512499Y-89125000D03*
%TD*%
%TO.C,D52*%
X334462499Y-91925000D03*
X334462499Y-89125000D03*
%TD*%
%TO.C,D51*%
X308268749Y-101450000D03*
X308268749Y-98650000D03*
%TD*%
%TO.C,D50*%
X282074999Y-91925000D03*
X282074999Y-89125000D03*
%TD*%
%TO.C,D49*%
X263024999Y-91925000D03*
X263024999Y-89125000D03*
%TD*%
%TO.C,D48*%
X243974999Y-91925000D03*
X243974999Y-89125000D03*
%TD*%
%TO.C,D47*%
X224924999Y-91925000D03*
X224924999Y-89125000D03*
%TD*%
%TO.C,D46*%
X205874999Y-91925000D03*
X205874999Y-89125000D03*
%TD*%
%TO.C,D45*%
X186824999Y-91925000D03*
X186824999Y-89125000D03*
%TD*%
%TO.C,D44*%
X167774999Y-91925000D03*
X167774999Y-89125000D03*
%TD*%
%TO.C,D43*%
X148724999Y-91925000D03*
X148724999Y-89125000D03*
%TD*%
%TO.C,D42*%
X129674999Y-91925000D03*
X129674999Y-89125000D03*
%TD*%
%TO.C,D41*%
X110624999Y-91925000D03*
X110624999Y-89125000D03*
%TD*%
%TO.C,D40*%
X91574999Y-91925000D03*
X91574999Y-89125000D03*
%TD*%
%TO.C,D39*%
X72524999Y-91925000D03*
X72524999Y-89125000D03*
%TD*%
%TO.C,D38*%
X48712499Y-91925000D03*
X48712499Y-89125000D03*
%TD*%
%TO.C,D37*%
X453524999Y-72875000D03*
X453524999Y-70075000D03*
%TD*%
%TO.C,D36*%
X434474999Y-72875000D03*
X434474999Y-70075000D03*
%TD*%
%TO.C,D35*%
X415424999Y-72875000D03*
X415424999Y-70075000D03*
%TD*%
%TO.C,D34*%
X396374999Y-72875000D03*
X396374999Y-70075000D03*
%TD*%
%TO.C,D33*%
X372562499Y-72875000D03*
X372562499Y-70075000D03*
%TD*%
%TO.C,D32*%
X353512499Y-72875000D03*
X353512499Y-70075000D03*
%TD*%
%TO.C,D31*%
X334462499Y-72875000D03*
X334462499Y-70075000D03*
%TD*%
%TO.C,D30*%
X301124999Y-72875000D03*
X301124999Y-70075000D03*
%TD*%
%TO.C,D29*%
X272549999Y-72875000D03*
X272549999Y-70075000D03*
%TD*%
%TO.C,D28*%
X253499999Y-72875000D03*
X253499999Y-70075000D03*
%TD*%
%TO.C,D27*%
X234449999Y-72875000D03*
X234449999Y-70075000D03*
%TD*%
%TO.C,D26*%
X215399999Y-72875000D03*
X215399999Y-70075000D03*
%TD*%
%TO.C,D25*%
X196349999Y-72875000D03*
X196349999Y-70075000D03*
%TD*%
%TO.C,D24*%
X177299999Y-72875000D03*
X177299999Y-70075000D03*
%TD*%
%TO.C,D23*%
X158249999Y-72875000D03*
X158249999Y-70075000D03*
%TD*%
%TO.C,D22*%
X139199999Y-72875000D03*
X139199999Y-70075000D03*
%TD*%
%TO.C,D21*%
X120149999Y-72875000D03*
X120149999Y-70075000D03*
%TD*%
%TO.C,D20*%
X101099999Y-72875000D03*
X101099999Y-70075000D03*
%TD*%
%TO.C,D19*%
X82049999Y-72875000D03*
X82049999Y-70075000D03*
%TD*%
%TO.C,D18*%
X62999999Y-72875000D03*
X62999999Y-70075000D03*
%TD*%
%TO.C,D17*%
X43949999Y-72875000D03*
X43949999Y-70075000D03*
%TD*%
%TO.C,D16*%
X372562499Y-44300000D03*
X372562499Y-41500000D03*
%TD*%
%TO.C,D15*%
X353512499Y-44300000D03*
X353512499Y-41500000D03*
%TD*%
%TO.C,D14*%
X334462499Y-44300000D03*
X334462499Y-41500000D03*
%TD*%
%TO.C,D13*%
X310649999Y-44300000D03*
X310649999Y-41500000D03*
%TD*%
%TO.C,D12*%
X291599999Y-44300000D03*
X291599999Y-41500000D03*
%TD*%
%TO.C,D11*%
X272549999Y-44300000D03*
X272549999Y-41500000D03*
%TD*%
%TO.C,D10*%
X253499999Y-44300000D03*
X253499999Y-41500000D03*
%TD*%
%TO.C,D9*%
X224924999Y-44300000D03*
X224924999Y-41500000D03*
%TD*%
%TO.C,D8*%
X205874999Y-44300000D03*
X205874999Y-41500000D03*
%TD*%
%TO.C,D7*%
X186824999Y-44300000D03*
X186824999Y-41500000D03*
%TD*%
%TO.C,D6*%
X167774999Y-44300000D03*
X167774999Y-41500000D03*
%TD*%
%TO.C,D5*%
X139199999Y-44300000D03*
X139199999Y-41500000D03*
%TD*%
%TO.C,D4*%
X120149999Y-44300000D03*
X120149999Y-41500000D03*
%TD*%
%TO.C,D3*%
X101099999Y-44300000D03*
X101099999Y-41500000D03*
%TD*%
%TO.C,D2*%
X82049999Y-44300000D03*
X82049999Y-41500000D03*
%TD*%
%TO.C,D1*%
X43949999Y-44300000D03*
X43949999Y-41500000D03*
%TD*%
D16*
%TO.C,SW11*%
X271780000Y-38100000D03*
D17*
X266700000Y-38100000D03*
D16*
X261620000Y-38100000D03*
D14*
X262890000Y-35560000D03*
D15*
X259340000Y-35560000D03*
X272790000Y-33020000D03*
D14*
X269240000Y-33020000D03*
%TD*%
M02*
