M48
; DRILL file KiCad 10.0.4 date 2026-07-24T02:31:35
; FORMAT={-:-/ absolute / metric / decimal}
; #@! TF.CreationDate,2026-07-24T02:31:35+01:00
; #@! TF.GenerationSoftware,Kicad,Pcbnew,10.0.4
; #@! TF.FileFunction,Plated,1,2,PTH
FMAT,2
METRIC
; #@! TA.AperFunction,Plated,PTH,ViaDrill
T1C0.300
; #@! TA.AperFunction,Plated,PTH,ComponentDrill
T2C0.800
; #@! TA.AperFunction,Plated,PTH,ComponentDrill
T3C1.000
; #@! TA.AperFunction,Plated,PTH,ComponentDrill
T4C2.000
; #@! TA.AperFunction,Plated,PTH,ComponentDrill
T5C3.000
%
G90
G05
T1
X29.946Y-133.216
X30.26Y-76.84
X30.27Y-70.25
X32.12Y-146.74
X32.12Y-154.5
X32.44Y-127.6
X34.43Y-113.47
X34.66Y-89.37
X34.73Y-94.54
X37.0Y-107.76
X41.08Y-40.03
X41.14Y-68.07
X43.95Y-124.86
X43.98Y-144.27
X46.4Y-86.84
X48.67Y-106.25
X48.86Y-69.96
X48.86Y-75.35
X53.38Y-127.57
X53.38Y-132.61
X56.06Y-146.37
X56.07Y-154.5
X58.46Y-89.53
X58.46Y-94.54
X60.11Y-68.15
X63.0Y-108.26
X63.0Y-113.49
X63.66Y-41.59
X63.67Y-46.56
X65.4Y-125.11
X67.54Y-144.25
X68.04Y-70.08
X68.04Y-75.05
X70.04Y-86.83
X72.89Y-132.64
X72.92Y-127.7
X74.77Y-106.22
X77.73Y-89.24
X77.75Y-94.54
X79.65Y-39.25
X79.67Y-67.95
X79.91Y-146.39
X79.91Y-154.5
X82.32Y-108.23
X82.35Y-113.47
X84.42Y-125.13
X86.91Y-69.96
X86.92Y-75.14
X87.08Y-41.45
X87.12Y-46.22
X89.64Y-87.13
X91.1Y-127.62
X91.16Y-132.48
X91.61Y-144.31
X93.89Y-106.23
X96.63Y-89.15
X96.67Y-94.54
X98.61Y-68.12
X98.71Y-39.48
X101.09Y-113.47
X101.12Y-108.29
X103.56Y-125.24
X106.42Y-70.12
X106.42Y-75.26
X106.47Y-41.37
X106.47Y-46.22
X108.25Y-87.06
X110.69Y-127.13
X110.69Y-132.49
X112.92Y-106.06
X115.55Y-89.33
X115.55Y-94.54
X117.7Y-68.15
X117.82Y-39.35
X120.45Y-108.44
X120.47Y-113.47
X122.58Y-124.96
X125.33Y-41.56
X125.37Y-46.22
X125.38Y-70.05
X125.39Y-75.26
X127.41Y-87.17
X129.93Y-127.47
X129.93Y-132.58
X132.34Y-106.08
X134.72Y-89.3
X134.77Y-95.36
X136.9Y-39.11
X136.98Y-68.04
X139.54Y-108.33
X139.54Y-113.47
X141.44Y-125.07
X144.57Y-69.94
X144.57Y-75.21
X146.18Y-87.31
X148.77Y-127.32
X148.77Y-132.62
X151.22Y-146.25
X151.25Y-155.13
X151.39Y-106.08
X151.85Y-143.78
X153.38Y-89.17
X153.38Y-94.54
X153.99Y-46.22
X154.0Y-41.37
X156.1Y-67.76
X158.61Y-108.29
X158.61Y-113.966
X160.52Y-125.19
X163.47Y-70.05
X163.47Y-75.17
X165.02Y-39.39
X165.44Y-86.93
X167.75Y-127.49
X167.75Y-132.63
X170.61Y-106.19
X172.76Y-94.54
X172.84Y-89.26
X173.12Y-41.33
X173.14Y-46.22
X175.07Y-67.9
X177.41Y-108.58
X177.41Y-113.92
X179.69Y-125.21
X181.44Y-141.7
X181.45Y-137.09
X182.52Y-75.33
X182.54Y-70.21
X184.13Y-87.05
X184.6Y-39.44
X186.92Y-127.5
X186.93Y-132.61
X189.61Y-106.15
X191.77Y-94.54
X191.78Y-89.22
X192.12Y-41.43
X192.14Y-46.75
X193.9Y-67.81
X196.3Y-108.11
X196.33Y-113.91
X198.91Y-125.04
X201.57Y-70.27
X201.58Y-75.16
X201.63Y-132.8
X203.22Y-39.43
X203.49Y-86.94
X205.86Y-127.31
X208.55Y-106.04
X210.95Y-89.28
X211.05Y-95.39
X211.31Y-41.49
X211.33Y-46.22
X213.24Y-67.87
X215.46Y-108.37
X215.48Y-113.88
X217.65Y-125.13
X220.69Y-70.12
X220.73Y-75.23
X222.43Y-87.05
X222.44Y-146.7
X222.48Y-39.27
X222.48Y-155.1
X225.41Y-127.35
X225.41Y-133.27
X225.77Y-155.7
X227.64Y-106.17
X229.41Y-155.68
X230.17Y-94.54
X230.18Y-89.11
X232.09Y-68.04
X234.63Y-108.11
X234.68Y-113.47
X236.96Y-125.1
X239.62Y-46.22
X239.63Y-41.27
X239.88Y-70.01
X239.88Y-75.27
X241.66Y-86.94
X244.0Y-127.47
X244.0Y-133.5
X246.51Y-146.31
X246.52Y-154.5
X246.64Y-106.21
X248.61Y-89.07
X248.63Y-94.54
X249.08Y-155.53
X250.8Y-39.44
X251.31Y-67.87
X252.72Y-155.51
X253.62Y-108.31
X253.65Y-113.47
X255.93Y-125.07
X258.37Y-143.82
X258.59Y-41.59
X258.62Y-46.22
X258.72Y-70.11
X258.73Y-75.18
X260.57Y-87.02
X265.65Y-106.21
X268.02Y-94.54
X268.04Y-89.2
X270.12Y-39.38
X270.23Y-67.95
X270.52Y-146.5
X270.52Y-154.5
X272.99Y-153.36
X273.01Y-108.4
X273.05Y-113.47
X276.63Y-153.34
X277.63Y-41.63
X277.67Y-46.22
X279.68Y-87.08
X279.95Y-127.51
X279.95Y-132.93
X282.11Y-144.01
X284.67Y-106.04
X287.73Y-70.15
X287.74Y-75.45
X289.13Y-39.47
X291.45Y-125.08
X292.24Y-98.25
X293.94Y-98.22
X294.1Y-154.5
X294.12Y-146.56
X296.56Y-153.57
X296.65Y-41.65
X296.69Y-46.25
X298.51Y-68.09
X300.2Y-153.55
X305.74Y-144.19
X305.81Y-96.36
X308.49Y-39.47
X318.43Y-133.28
X318.44Y-144.96
X320.1Y-93.86
X320.11Y-97.51
X320.61Y-69.97
X320.61Y-75.26
X320.75Y-41.42
X320.76Y-46.22
X326.52Y-97.54
X327.06Y-95.36
X331.71Y-144.18
X331.89Y-87.05
X332.13Y-39.36
X332.31Y-68.06
X339.28Y-95.34
X339.3Y-89.21
X339.42Y-127.61
X339.42Y-133.34
X339.5Y-41.47
X339.51Y-46.25
X339.8Y-145.832
X339.95Y-70.08
X339.95Y-74.73
X350.89Y-125.26
X350.9Y-86.96
X350.96Y-67.81
X351.16Y-39.42
X351.34Y-144.01
X357.59Y-133.13
X357.59Y-145.44
X358.2Y-46.22
X358.21Y-41.71
X358.4Y-95.3
X358.41Y-89.4
X358.85Y-70.02
X358.87Y-74.72
X369.438Y-94.36
X369.74Y-39.48
X369.93Y-86.88
X370.24Y-67.89
X370.38Y-143.71
X370.56Y-46.23
X381.61Y-94.36
X381.72Y-127.51
X381.72Y-133.19
X381.72Y-145.19
X382.13Y-113.47
X382.28Y-108.49
X382.43Y-70.36
X382.43Y-75.36
X393.68Y-125.06
X393.8Y-67.98
X394.02Y-87.06
X394.12Y-106.12
X400.93Y-89.57
X400.95Y-95.42
X401.15Y-108.88
X401.17Y-113.47
X401.49Y-74.72
X401.5Y-70.2
X401.69Y-127.56
X401.69Y-133.35
X403.54Y-144.01
X412.82Y-125.22
X412.83Y-67.84
X412.86Y-86.98
X413.2Y-106.12
X420.04Y-108.48
X420.06Y-113.47
X420.43Y-127.53
X420.43Y-133.57
X420.43Y-144.18
X420.62Y-89.26
X420.62Y-95.35
X420.7Y-70.36
X420.77Y-74.72
X431.35Y-94.91
X431.35Y-132.45
X431.85Y-87.09
X431.93Y-125.09
X432.0Y-67.95
X432.22Y-106.12
X434.36Y-94.94
X435.31Y-132.41
X439.34Y-74.72
X439.37Y-70.23
X450.86Y-96.77
X451.14Y-67.81
X451.19Y-134.62
T2
X39.02Y-49.56
X46.64Y-49.56
X462.7Y-102.41
X469.02Y-110.12
X469.02Y-112.66
X469.02Y-115.2
X469.02Y-117.74
X469.02Y-120.28
X469.02Y-122.82
X469.02Y-125.36
X469.02Y-127.9
X469.02Y-130.44
X469.02Y-132.98
X469.02Y-135.52
X469.02Y-138.06
X469.02Y-140.6
X469.02Y-143.14
X470.32Y-102.41
X475.19Y-102.41
X476.64Y-110.12
X476.64Y-112.66
X476.64Y-115.2
X476.64Y-117.74
X476.64Y-120.28
X476.64Y-122.82
X476.64Y-125.36
X476.64Y-127.9
X476.64Y-130.44
X476.64Y-132.98
X476.64Y-135.52
X476.64Y-138.06
X476.64Y-140.6
X476.64Y-143.14
X482.81Y-102.41
T3
X385.275Y-34.29
X385.275Y-36.83
X385.275Y-39.37
X385.275Y-41.91
X440.425Y-35.6
X440.425Y-38.1
X440.425Y-40.6
X454.925Y-35.6
X454.925Y-40.6
X466.39Y-25.86
X466.39Y-28.4
X466.39Y-30.94
X466.39Y-33.48
X466.39Y-36.02
X466.39Y-38.56
X466.39Y-41.1
X466.39Y-43.64
X466.39Y-46.18
X466.39Y-48.72
X466.39Y-51.26
X466.39Y-53.8
X466.39Y-56.34
X466.39Y-58.88
X466.39Y-61.42
X466.39Y-63.96
X466.39Y-66.5
X466.39Y-69.04
X466.39Y-71.58
X466.39Y-74.12
X484.17Y-25.86
X484.17Y-28.4
X484.17Y-30.94
X484.17Y-33.48
X484.17Y-36.02
X484.17Y-38.56
X484.17Y-41.1
X484.17Y-43.64
X484.17Y-46.18
X484.17Y-48.72
X484.17Y-51.26
X484.17Y-53.8
X484.17Y-56.34
X484.17Y-58.88
X484.17Y-61.42
X484.17Y-63.96
X484.17Y-66.5
X484.17Y-69.04
X484.17Y-71.58
X484.17Y-74.12
T5
X34.29Y-35.56
X34.29Y-64.135
X36.671Y-121.285
X36.671Y-140.335
X39.052Y-83.185
X40.64Y-33.02
X40.64Y-61.595
X41.434Y-102.235
X43.021Y-118.745
X43.021Y-137.795
X45.402Y-80.645
X47.784Y-99.695
X53.34Y-64.135
X58.102Y-121.285
X59.69Y-61.595
X60.484Y-140.335
X62.865Y-83.185
X64.453Y-118.745
X66.834Y-137.795
X67.627Y-102.235
X69.215Y-80.645
X72.39Y-35.56
X72.39Y-64.135
X73.977Y-99.695
X77.153Y-121.285
X78.74Y-33.02
X78.74Y-61.595
X81.915Y-83.185
X83.502Y-118.745
X84.296Y-140.335
X86.677Y-102.235
X88.265Y-80.645
X90.646Y-137.795
X91.44Y-35.56
X91.44Y-64.135
X93.027Y-99.695
X96.203Y-121.285
X97.79Y-33.02
X97.79Y-61.595
X100.965Y-83.185
X102.552Y-118.745
X105.727Y-102.235
X107.315Y-80.645
X110.49Y-35.56
X110.49Y-64.135
X112.078Y-99.695
X115.252Y-121.285
X116.84Y-33.02
X116.84Y-61.595
X120.015Y-83.185
X121.602Y-118.745
X124.777Y-102.235
X126.365Y-80.645
X129.54Y-35.56
X129.54Y-64.135
X131.127Y-99.695
X134.302Y-121.285
X135.89Y-33.02
X135.89Y-61.595
X139.065Y-83.185
X140.653Y-118.745
X143.827Y-102.235
X145.415Y-80.645
X148.59Y-64.135
X150.177Y-99.695
X153.352Y-121.285
X154.94Y-61.595
X155.734Y-140.335
X158.115Y-35.56
X158.115Y-83.185
X159.702Y-118.745
X162.084Y-137.795
X162.877Y-102.235
X164.465Y-33.02
X164.465Y-80.645
X167.64Y-64.135
X169.227Y-99.695
X172.403Y-121.285
X173.99Y-61.595
X177.165Y-35.56
X177.165Y-83.185
X178.752Y-118.745
X181.927Y-102.235
X183.515Y-33.02
X183.515Y-80.645
X186.69Y-64.135
X188.278Y-99.695
X191.452Y-121.285
X193.04Y-61.595
X196.215Y-35.56
X196.215Y-83.185
X197.802Y-118.745
X200.977Y-102.235
X202.565Y-33.02
X202.565Y-80.645
X205.74Y-64.135
X207.327Y-99.695
X210.502Y-121.285
X212.09Y-61.595
X215.265Y-35.56
X215.265Y-83.185
X216.852Y-118.745
X220.028Y-102.235
X221.615Y-33.02
X221.615Y-80.645
X224.79Y-64.135
X226.377Y-99.695
X227.171Y-140.335
X229.552Y-121.285
X231.14Y-61.595
X233.521Y-137.795
X234.315Y-83.185
X235.903Y-118.745
X239.077Y-102.235
X240.665Y-80.645
X243.84Y-35.56
X243.84Y-64.135
X245.427Y-99.695
X248.602Y-121.285
X250.19Y-33.02
X250.19Y-61.595
X250.984Y-140.335
X253.365Y-83.185
X254.952Y-118.745
X257.334Y-137.795
X258.127Y-102.235
X259.715Y-80.645
X262.89Y-35.56
X262.89Y-64.135
X264.477Y-99.695
X269.24Y-33.02
X269.24Y-61.595
X272.415Y-83.185
X274.796Y-140.335
X277.178Y-102.235
X278.765Y-80.645
X281.146Y-137.795
X281.94Y-35.56
X283.527Y-99.695
X284.321Y-121.285
X288.29Y-33.02
X290.671Y-118.745
X291.465Y-64.135
X297.815Y-61.595
X298.609Y-92.71
X298.609Y-140.335
X300.99Y-35.56
X304.959Y-90.17
X304.959Y-137.795
X307.34Y-33.02
X324.803Y-35.56
X324.803Y-64.135
X324.803Y-83.185
X324.803Y-140.335
X331.152Y-33.02
X331.152Y-61.595
X331.152Y-80.645
X331.152Y-137.795
X343.852Y-35.56
X343.852Y-64.135
X343.852Y-83.185
X343.852Y-121.285
X343.852Y-140.335
X350.202Y-33.02
X350.202Y-61.595
X350.202Y-80.645
X350.202Y-118.745
X350.202Y-137.795
X362.902Y-35.56
X362.902Y-64.135
X362.902Y-83.185
X362.902Y-140.335
X369.252Y-33.02
X369.252Y-61.595
X369.252Y-80.645
X369.252Y-137.795
X386.715Y-64.135
X386.715Y-83.185
X386.715Y-102.235
X386.715Y-121.285
X393.065Y-61.595
X393.065Y-80.645
X393.065Y-99.695
X393.065Y-118.745
X396.24Y-140.335
X402.59Y-137.795
X405.765Y-64.135
X405.765Y-83.185
X405.765Y-102.235
X405.765Y-121.285
X412.115Y-61.595
X412.115Y-80.645
X412.115Y-99.695
X412.115Y-118.745
X424.815Y-64.135
X424.815Y-83.185
X424.815Y-102.235
X424.815Y-121.285
X424.815Y-140.335
X431.165Y-61.595
X431.165Y-80.645
X431.165Y-99.695
X431.165Y-118.745
X431.165Y-137.795
X443.865Y-64.135
X443.865Y-92.71
X443.865Y-130.81
X450.215Y-61.595
X450.215Y-90.17
X450.215Y-128.27
T4
G00X447.675Y-32.5
M15
G01X448.175Y-32.5
M16
G05
G00X447.675Y-43.7
M15
G01X448.175Y-43.7
M16
G05
M30
